<?xml version="1.0" standalone="no"?>
<!DOCTYPE svg PUBLIC "-//W3C//DTD SVG 20010904//EN"
 "http://www.w3.org/TR/2001/REC-SVG-20010904/DTD/svg10.dtd">
<svg version="1.0" xmlns="http://www.w3.org/2000/svg"
 width="16.000000pt" height="16.000000pt" viewBox="0 0 16.000000 16.000000"
 preserveAspectRatio="xMidYMid meet">
<metadata>
Created by potrace 1.11, written by Peter Selinger 2001-2013
</metadata>
<g transform="translate(0.000000,16.000000) scale(0.005333,-0.005333)"
fill="#000000" stroke="none">
<path d="M0 1500 l0 -1500 1500 0 1500 0 0 1500 0 1500 -1500 0 -1500 0 0
-1500z m2860 -5 l0 -1355 -1360 0 -1360 0 0 1355 0 1355 1360 0 1360 0 0
-1355z"/>
<path d="M829 2486 c-107 -29 -220 -130 -260 -234 -30 -78 -33 -234 -5 -307
32 -84 118 -201 297 -405 276 -312 341 -402 373 -509 34 -116 10 -265 -52
-323 -52 -49 -91 -63 -177 -63 -71 0 -86 3 -135 31 -86 49 -148 156 -173 302
-6 34 -15 62 -21 62 -30 0 -129 -35 -133 -48 -11 -26 28 -162 70 -246 95 -190
256 -279 449 -247 172 28 293 132 334 283 18 70 18 209 -1 283 -31 116 -74
177 -367 522 -225 264 -257 307 -294 388 -33 71 -36 174 -9 243 21 51 80 104
134 120 58 18 160 15 206 -7 80 -36 153 -145 176 -263 6 -32 15 -58 18 -58 4
0 35 10 70 21 l63 22 -7 50 c-9 74 -57 189 -101 247 -48 62 -121 114 -193 134
-64 19 -197 20 -262 2z"/>
<path d="M1620 1495 l0 -976 268 3 c226 3 275 7 318 22 117 41 193 135 231
280 14 56 18 110 18 256 0 176 -2 189 -28 264 -38 108 -95 186 -164 224 -13 8
-8 16 29 51 50 45 98 135 119 221 19 74 16 249 -5 329 -21 83 -70 174 -115
213 -19 17 -60 43 -91 57 -54 26 -59 26 -317 29 l-263 3 0 -976z m475 816 c83
-38 129 -118 146 -253 17 -137 -14 -300 -69 -362 -39 -44 -89 -56 -239 -56
l-143 0 0 345 0 345 133 0 c107 0 140 -4 172 -19z m38 -823 c56 -17 100 -63
128 -133 22 -56 24 -73 24 -255 0 -176 -2 -202 -23 -268 -27 -85 -78 -144
-139 -161 -21 -6 -104 -11 -185 -11 l-148 0 0 420 0 420 151 0 c89 0 168 -5
192 -12z"/>
</g>
</svg>
