<svg version="1" xmlns="http://www.w3.org/2000/svg" width="400" height="400" viewBox="0 0 300.000000 300.000000"><path d="M74.6 75.1l-74.9 75 75.1 75.1 75.2 75.1 75.2-75.2 75.1-75.1-73.9-74.1C185.8 35.2 151.8 1.5 151 1.1c-1.1-.7-19 16.6-76.4 74zm147.8 11.7l63.3 63.2-67.8 67.9-67.9 67.8-67.8-67.8L14.3 150l67.6-67.8 67.6-67.8 4.8 4.6c2.7 2.5 33.3 33 68.1 67.8z"/><path d="M102.8 80.3c-6.1 1.8-11.9 5.9-15.3 10.8-5.1 7.3-6.5 20.2-3.1 28.4 1.6 3.7 8.6 14 12.3 18 1 1.1 4.7 5.4 8.3 9.5 3.6 4.1 7.2 8.2 8.1 9 .8.8 4.4 5.1 7.9 9.5 10.3 13 13.1 21.2 10.8 31.8-1.5 7-5.6 11.3-12.3 12.8-12.9 2.9-22.6-5.1-25.9-21.3-.6-3.2-1.6-5.9-2.1-5.9-.6 0-2.9.5-5.3 1.2-4.2 1.2-4.2 1.2-3.6 4.8.9 5.1 4.3 14 6.9 18.1 6.2 9.9 15.5 14.6 26.9 13.6 16.9-1.5 26.7-11.8 27.1-28.6.3-15.2-2.2-19.5-31.9-54-17.2-20-21-29.4-16-39.7 5.1-10.2 20.6-12.2 28.9-3.6 3.4 3.5 7.5 12.4 7.5 16.3 0 2.3 1.9 2.5 6.8.8 3.3-1.2 3.3-1.3 2.7-5.7-1.5-10.1-8.7-20.6-16.8-24.4-5-2.4-15.9-3.1-21.9-1.4zM159 150v69.1l18.2-.2c12.5-.1 19.6-.6 22.4-1.6 12.6-4.3 18.7-17.6 18-39.8-.4-13.9-3.2-22.2-9.8-28.8-4.8-4.8-4.9-5-2.9-6.4 2.7-1.8 6.9-9.1 8.8-15.1 1.9-6.2 1.9-18.7-.1-25.4-2.5-8.6-6.8-14.3-13.4-17.5-5.5-2.7-6.4-2.8-23.4-3.1l-17.8-.4V150zm35.1-56.7c7.5 4.9 10.9 20.2 7.5 33.7-2.4 9.2-5.6 12.3-13.8 13-3.5.3-8.8.3-11.8 0l-5.5-.5v-23c-.1-12.7.1-23.6.3-24.3.3-.8 3.2-1.2 10.2-1.2 8.4 0 10.2.3 13.1 2.3zm4 59c6.1 4.1 8.4 11.9 8.1 28.1-.2 9.7-2.1 19.1-4.8 23.2-3 4.5-6.3 5.4-19.1 5.4h-11.8l.1-29.2c.1-16.1.2-29.4.3-29.6 0-.1 5.4-.2 12-.2 10.6 0 12.1.2 15.2 2.3z"/></svg>