<?xml version="1.0" standalone="no"?>
<!DOCTYPE svg PUBLIC "-//W3C//DTD SVG 20010904//EN"
 "http://www.w3.org/TR/2001/REC-SVG-20010904/DTD/svg10.dtd">
<svg version="1.0" xmlns="http://www.w3.org/2000/svg"
 width="2362.000000pt" height="2362.000000pt" viewBox="0 0 2362.000000 2362.000000"
 preserveAspectRatio="xMidYMid meet">
<metadata>
Created by potrace 1.11, written by Peter Selinger 2001-2013
</metadata>
<g transform="translate(0.000000,2362.000000) scale(0.100000,-0.100000)"
fill="#000000" stroke="none">
<path d="M14167 21463 c-1 0 -99 -4 -217 -8 -118 -3 -231 -8 -250 -10 -19 -2
-87 -6 -150 -10 -123 -7 -176 -11 -255 -20 -27 -3 -75 -8 -105 -10 -57 -5
-285 -33 -330 -40 -14 -2 -47 -7 -75 -10 -27 -4 -129 -20 -225 -37 -96 -16
-188 -32 -205 -35 -16 -2 -46 -8 -65 -13 -19 -5 -50 -12 -68 -15 -27 -4 -85
-17 -192 -40 -295 -64 -770 -207 -1175 -355 -53 -19 -279 -111 -330 -135 -307
-139 -429 -197 -605 -291 -154 -81 -398 -223 -545 -317 -435 -276 -732 -579
-908 -929 -103 -203 -140 -323 -185 -593 -10 -59 -9 -427 1 -475 3 -14 11 -59
17 -100 12 -77 45 -226 60 -270 4 -14 16 -52 25 -85 29 -100 124 -332 189
-465 156 -313 291 -524 615 -960 80 -107 192 -258 249 -335 57 -77 112 -151
122 -165 11 -14 54 -72 97 -130 192 -260 303 -411 353 -480 30 -41 58 -79 63
-85 8 -11 176 -239 317 -431 331 -451 777 -1051 802 -1078 10 -11 18 -23 18
-28 0 -4 0 -11 0 -15 1 -8 -6 -9 -112 -18 -46 -3 -99 -8 -118 -11 -19 -2 -66
-6 -105 -9 -136 -11 -194 -17 -325 -30 -112 -12 -139 -15 -195 -20 -33 -3 -76
-7 -95 -10 -19 -2 -66 -7 -105 -10 -108 -10 -163 -17 -315 -41 -52 -9 -106
-17 -120 -19 -14 -2 -38 -6 -55 -9 -16 -3 -73 -12 -125 -20 -52 -9 -106 -18
-120 -21 -14 -3 -79 -15 -145 -26 -66 -12 -122 -22 -125 -24 -3 -2 -26 -6 -50
-10 -25 -3 -63 -10 -85 -15 -22 -5 -53 -11 -70 -14 -16 -3 -39 -8 -50 -10 -11
-2 -65 -14 -121 -25 -55 -12 -111 -24 -125 -27 -13 -3 -35 -7 -49 -10 -14 -3
-43 -10 -65 -15 -22 -5 -51 -12 -65 -15 -14 -3 -41 -9 -60 -14 -19 -5 -46 -11
-60 -14 -14 -3 -79 -19 -145 -36 -66 -17 -131 -33 -145 -36 -14 -3 -47 -12
-75 -19 -57 -17 -192 -54 -216 -59 -9 -3 -88 -25 -175 -51 -1078 -316 -1977
-764 -2377 -1185 -284 -298 -367 -594 -273 -970 9 -36 58 -147 90 -204 117
-209 434 -567 676 -763 304 -247 578 -378 1065 -508 120 -32 372 -84 482 -100
93 -13 110 -15 153 -21 25 -3 56 -7 70 -9 14 -2 57 -6 95 -10 39 -3 86 -8 105
-10 229 -27 1035 -27 1280 0 19 2 62 6 95 9 84 9 156 17 185 21 14 2 50 7 80
10 30 4 64 9 75 11 11 2 43 7 70 10 28 3 66 9 85 14 19 5 53 11 75 15 50 7
276 53 330 67 22 5 48 12 58 14 10 2 27 6 37 9 10 3 27 7 37 9 96 19 419 115
631 187 319 110 607 233 805 346 45 25 91 51 102 58 31 17 190 121 211 138 10
9 55 44 99 78 169 132 352 330 480 519 122 181 251 491 291 695 2 11 8 43 14
70 17 90 19 99 35 260 6 52 6 329 1 380 -3 22 -8 72 -11 110 -4 39 -13 106
-22 150 -8 44 -17 91 -19 105 -21 119 -116 412 -170 524 -18 38 -21 52 -12 58
12 7 704 2 888 -7 129 -6 287 -15 370 -20 41 -3 105 -7 141 -10 84 -5 219 -18
379 -35 105 -11 141 -16 245 -30 39 -6 90 -12 115 -15 38 -5 154 -23 263 -40
15 -3 42 -7 60 -10 51 -9 300 -56 392 -75 28 -6 59 -12 70 -14 11 -3 43 -10
70 -16 28 -6 57 -13 65 -15 295 -63 793 -218 1090 -340 263 -108 580 -260 730
-351 253 -152 413 -313 501 -504 63 -134 82 -221 83 -375 1 -147 -3 -178 -34
-295 -38 -148 -116 -315 -217 -470 -37 -58 -73 -112 -80 -120 -225 -290 -393
-456 -675 -666 -166 -123 -501 -337 -728 -462 -30 -17 -93 -52 -140 -78 -108
-60 -701 -359 -800 -404 -41 -18 -102 -46 -135 -61 -357 -163 -985 -418 -1465
-596 -52 -19 -129 -47 -170 -63 -267 -101 -970 -343 -970 -334 0 3 13 28 29
57 15 29 57 106 91 172 34 66 75 143 90 170 15 28 63 118 105 200 43 83 81
155 85 160 4 6 42 78 85 160 43 83 98 188 123 235 55 103 418 830 460 920 17
36 62 132 101 213 39 82 71 150 71 152 0 2 17 41 39 87 43 93 72 157 108 238
13 30 31 69 38 85 29 64 119 286 166 410 28 72 55 144 62 160 6 17 12 35 13
40 1 6 11 35 22 65 30 79 89 289 97 341 4 24 8 46 10 50 2 3 7 41 10 85 4 43
8 90 9 104 5 40 -12 134 -33 182 -22 48 -61 94 -107 126 -98 67 -301 62 -514
-14 -3 -1 -16 -5 -28 -9 -58 -19 -195 -92 -285 -152 -117 -77 -215 -171 -245
-234 -60 -124 12 -262 144 -277 34 -4 48 -10 54 -26 13 -32 4 -173 -15 -245
-15 -58 -94 -288 -115 -336 -5 -11 -32 -81 -61 -155 -28 -74 -57 -148 -64
-165 -7 -16 -43 -104 -81 -195 -70 -173 -203 -475 -271 -620 -22 -47 -51 -107
-63 -135 -29 -64 -371 -748 -440 -880 -109 -209 -167 -316 -270 -505 -59 -107
-116 -211 -127 -230 -11 -19 -35 -62 -53 -95 -18 -33 -41 -73 -51 -90 -10 -16
-37 -63 -60 -104 -104 -184 -113 -195 -165 -215 -53 -20 -297 -84 -354 -92
-19 -3 -63 -12 -98 -20 -34 -7 -74 -16 -90 -19 -124 -23 -246 -56 -279 -76
-47 -29 -99 -96 -119 -154 -56 -165 14 -329 185 -432 50 -30 170 -75 233 -87
51 -10 110 -24 114 -29 2 -2 -16 -40 -40 -85 -25 -44 -75 -138 -112 -209 -37
-70 -70 -132 -74 -138 -4 -5 -78 -149 -165 -320 -87 -170 -193 -377 -235 -460
-187 -361 -475 -943 -577 -1165 -14 -30 -41 -89 -60 -130 -211 -456 -359 -856
-422 -1135 -63 -279 -62 -390 2 -470 89 -112 241 -95 348 38 39 49 149 249
149 272 0 4 6 21 14 38 7 18 28 75 46 127 87 253 238 587 488 1080 90 179 184
361 207 405 94 177 279 522 295 550 225 401 313 556 357 629 29 49 53 90 53
92 0 11 520 857 531 865 5 3 30 4 56 3 27 -2 120 -5 208 -9 88 -3 180 -8 205
-10 25 -2 90 -7 145 -10 55 -4 114 -8 130 -9 17 -2 64 -6 105 -10 124 -11 173
-16 210 -21 19 -3 60 -7 90 -10 30 -4 66 -8 80 -10 14 -2 50 -7 80 -10 60 -7
111 -13 150 -20 14 -2 45 -7 70 -10 347 -45 877 -156 1085 -226 236 -81 465
-231 556 -365 74 -109 112 -228 113 -354 1 -110 -5 -144 -40 -249 -60 -181
-202 -365 -385 -501 -68 -51 -225 -143 -334 -196 -22 -10 -42 -21 -45 -24 -3
-3 -34 -19 -70 -34 -36 -16 -101 -46 -145 -66 -192 -89 -574 -232 -780 -292
-257 -74 -548 -148 -745 -187 -136 -27 -347 -63 -440 -76 -25 -3 -56 -8 -70
-10 -54 -8 -127 -17 -160 -20 -19 -2 -61 -6 -92 -9 -32 -3 -84 -9 -115 -12
-192 -18 -376 -119 -425 -234 -61 -140 13 -276 185 -339 68 -24 83 -26 252
-26 161 0 303 7 375 20 14 2 56 7 93 10 37 4 76 8 85 10 9 1 42 6 73 9 31 4
65 8 75 10 18 4 95 15 141 21 12 2 34 6 50 9 15 3 44 8 63 11 19 3 78 15 130
26 52 11 109 22 125 25 69 12 353 87 487 128 188 59 400 137 548 204 122 54
328 157 404 201 49 28 90 51 92 51 9 0 239 151 319 209 278 202 554 461 747
702 257 320 382 622 373 904 -6 219 -84 395 -258 581 -183 196 -427 351 -792
503 -203 84 -640 229 -805 266 -8 2 -55 13 -105 25 -49 12 -97 23 -105 25
-261 54 -444 87 -549 100 -30 4 -62 8 -72 10 -10 2 -49 7 -86 10 -37 4 -81 9
-98 11 -16 2 -75 6 -130 10 -55 3 -102 7 -104 9 -2 3 58 23 89 30 28 6 910
296 950 312 8 3 20 7 25 8 78 18 965 365 1190 465 22 10 74 32 115 50 115 50
195 86 394 178 76 35 535 265 696 348 41 22 77 42 78 47 2 4 7 7 12 7 9 0 284
153 390 217 203 122 221 134 420 266 429 286 779 574 985 811 28 32 55 63 60
69 135 154 306 434 385 632 34 86 77 221 86 270 3 17 9 46 14 65 29 110 33
404 6 540 -65 333 -262 660 -542 897 -25 21 -51 43 -58 50 -33 30 -200 145
-286 197 -316 191 -904 439 -1430 602 -122 39 -467 131 -550 148 -14 3 -92 19
-175 36 -82 18 -159 33 -170 35 -11 1 -58 9 -105 18 -82 16 -118 22 -177 31
-196 31 -297 46 -343 51 -30 3 -62 8 -70 10 -8 3 -40 7 -70 10 -30 3 -113 12
-185 20 -131 14 -246 25 -320 30 -144 9 -245 17 -280 20 -201 18 -1174 26
-1475 12 -155 -7 -371 -19 -414 -21 -27 -2 -43 17 -215 244 -102 135 -208 275
-236 311 -27 36 -60 79 -72 95 -12 16 -93 121 -179 234 -86 113 -184 241 -218
285 -33 44 -63 82 -66 85 -3 3 -44 55 -90 115 -133 174 -673 858 -690 875 -3
3 -19 23 -35 45 -16 22 -37 49 -47 60 -89 105 -651 816 -688 870 -271 402
-529 946 -577 1215 -2 14 -8 41 -14 61 -16 64 -20 101 -24 249 -6 226 32 412
125 607 41 88 130 238 149 253 3 3 22 25 41 50 129 167 285 303 610 529 115
80 293 195 365 235 17 9 53 30 80 46 200 119 576 291 890 408 267 99 715 222
1005 276 47 9 96 18 110 21 14 3 41 7 60 10 19 2 58 9 85 14 42 8 160 25 320
45 115 15 280 32 415 41 373 27 1115 27 1440 0 94 -7 194 -17 213 -20 12 -2
45 -6 72 -9 58 -7 134 -17 155 -21 115 -20 210 -40 275 -57 44 -11 87 -21 95
-23 33 -6 199 -58 280 -87 199 -71 416 -201 574 -343 287 -258 477 -661 514
-1085 12 -141 4 -488 -13 -550 -5 -18 -16 -86 -20 -120 -1 -14 -5 -43 -9 -65
-11 -66 -9 -177 4 -225 16 -61 54 -108 104 -131 152 -69 287 66 410 407 38
107 92 309 102 384 3 25 7 56 9 70 25 181 26 529 1 660 -3 14 -10 54 -16 90
-45 260 -177 582 -332 813 -47 70 -256 281 -358 363 -191 153 -402 273 -610
348 -69 25 -332 96 -375 101 -11 1 -29 5 -40 8 -11 3 -36 9 -55 12 -19 3 -60
10 -90 15 -154 27 -333 49 -520 66 -110 9 -154 12 -375 19 -185 7 -494 12
-498 8z m-2532 -8567 c29 -29 135 -205 183 -307 83 -172 134 -343 160 -539 9
-72 9 -372 -1 -434 -62 -393 -262 -719 -612 -1001 -268 -215 -571 -380 -1035
-560 -282 -110 -751 -250 -935 -279 -16 -2 -55 -9 -85 -15 -30 -6 -70 -13 -90
-16 -19 -3 -48 -7 -65 -10 -68 -12 -94 -15 -185 -25 -149 -17 -256 -27 -365
-35 -38 -3 -95 -7 -125 -10 -300 -23 -815 -24 -935 -1 -11 2 -49 7 -85 11 -36
4 -74 9 -85 11 -11 3 -33 6 -50 8 -173 24 -480 113 -640 186 -285 128 -479
260 -663 449 -225 231 -308 433 -239 583 83 184 451 488 847 702 523 283 1025
491 1640 676 161 49 611 171 677 185 10 2 79 17 153 35 124 28 428 94 493 105
15 3 60 12 100 21 39 8 117 24 172 34 169 32 368 69 400 74 106 18 405 68 430
72 17 2 41 6 55 9 14 2 41 6 60 9 52 7 192 27 219 31 61 10 111 16 176 20 168
11 260 17 262 19 1 0 36 2 78 4 55 2 80 -1 90 -12z"/>
</g>
</svg>
