<svg id="Layer_1" data-name="Layer 1" xmlns="http://www.w3.org/2000/svg" viewBox="0 0 915.97 535.29"><defs><style>.cls-1{fill:none;stroke:#002738;stroke-miterlimit:10;stroke-width:4px;}.cls-2{fill:#002738;}.cls-3{fill:#042842;}</style></defs><title>Background</title><line class="cls-1" x1="450.96" y1="242.89" x2="515.8" y2="206.53"/><line class="cls-1" x1="381.65" y1="104.3" x2="320.97" y2="48.29"/><line class="cls-1" x1="376.3" y1="188.28" x2="381.65" y2="104.3"/><line class="cls-1" x1="450.96" y1="242.89" x2="376.3" y2="188.28"/><line class="cls-1" x1="315.51" y1="216.24" x2="376.3" y2="188.28"/><circle class="cls-2" cx="387.3" cy="199.5" r="21.46" transform="translate(153.1 562.43) rotate(-86.43)"/><path class="cls-3" d="M372.63,198.47a14.82,14.82,0,1,1,13.87,15.71A14.84,14.84,0,0,1,372.63,198.47ZM397.12,200a9.71,9.71,0,1,0-10.3,9.09A9.72,9.72,0,0,0,397.12,200Z" transform="translate(-11 -11.21)"/><circle class="cls-2" cx="392.65" cy="115.52" r="15.33" transform="translate(241.93 489.01) rotate(-86.43)"/><circle class="cls-2" cx="461.96" cy="254.1" r="15.33" transform="translate(168.61 688.14) rotate(-86.43)"/><circle class="cls-2" cx="326.51" cy="227.45" r="15.33" transform="translate(68.18 527.97) rotate(-86.43)"/><circle class="cls-2" cx="331.97" cy="59.51" r="9.2" transform="translate(240.92 375.92) rotate(-86.43)"/><circle class="cls-2" cx="526.8" cy="217.75" r="9.2" transform="translate(265.71 718.77) rotate(-86.43)"/><line class="cls-1" x1="665.33" y1="415" x2="624.57" y2="488.37"/><line class="cls-1" x1="814.08" y1="507.07" x2="905.59" y2="524.91"/><line class="cls-1" x1="769.43" y1="423.2" x2="814.08" y2="507.07"/><line class="cls-1" x1="665.33" y1="415" x2="769.43" y2="423.2"/><line class="cls-1" x1="811.27" y1="360.3" x2="769.43" y2="423.2"/><circle class="cls-2" cx="780.43" cy="434.42" r="24.23" transform="translate(-123.63 407.71) rotate(-28.11)"/><path class="cls-3" d="M795.14,426.71a16.73,16.73,0,1,1-22.64-6.88A16.75,16.75,0,0,1,795.14,426.71Zm-24.43,13a11,11,0,1,0,4.51-14.83A11,11,0,0,0,770.71,439.76Z" transform="translate(-11 -11.21)"/><circle class="cls-2" cx="825.08" cy="518.28" r="17.31" transform="translate(-157.87 438.64) rotate(-28.11)"/><circle class="cls-2" cx="676.33" cy="426.21" r="17.31" transform="translate(-132.04 357.7) rotate(-28.11)"/><circle class="cls-2" cx="822.27" cy="371.52" r="17.31" transform="translate(-89.06 420.01) rotate(-28.11)"/><circle class="cls-2" cx="916.59" cy="536.12" r="10.39" transform="translate(-155.49 483.86) rotate(-28.11)"/><circle class="cls-2" cx="635.58" cy="499.58" r="10.39" transform="translate(-171.41 347.15) rotate(-28.11)"/><line class="cls-1" x1="734.98" y1="81.82" x2="696.53" y2="11.6"/><line class="cls-1" x1="777.37" y1="234.24" x2="689.32" y2="292.99"/><line class="cls-1" x1="814.88" y1="144.31" x2="734.98" y2="81.82"/><line class="cls-1" x1="814.88" y1="144.31" x2="832.25" y2="64.79"/><line class="cls-1" x1="814.88" y1="144.31" x2="777.37" y2="234.24"/><line class="cls-1" x1="814.88" y1="144.31" x2="887.46" y2="217.53"/><circle class="cls-2" cx="825.88" cy="155.53" r="25.55" transform="translate(-20.37 237.2) rotate(-17.01)"/><path class="cls-3" d="M820.89,138.75a17.64,17.64,0,1,1-11.71,22A17.66,17.66,0,0,1,820.89,138.75Zm8.54,27.92A11.56,11.56,0,1,0,815,159,11.57,11.57,0,0,0,829.43,166.67Z" transform="translate(-11 -11.21)"/><circle class="cls-2" cx="745.78" cy="92.39" r="18.25" transform="translate(-5.4 211) rotate(-17.01)"/><circle class="cls-2" cx="843.25" cy="76" r="18.25" transform="translate(3.65 238.8) rotate(-17.01)"/><circle class="cls-2" cx="707.34" cy="22.17" r="10.95" transform="translate(13.46 196.68) rotate(-17.01)"/><circle class="cls-2" cx="898.46" cy="228.74" r="18.25" transform="translate(-38.61 261.63) rotate(-17.01)"/><circle class="cls-2" cx="788.37" cy="245.46" r="18.25" transform="translate(-48.32 230.16) rotate(-17.01)"/><circle class="cls-2" cx="700.52" cy="304.85" r="10.95" transform="translate(-69.54 207.05) rotate(-17.01)"/><line class="cls-1" x1="25.23" y1="69.21" x2="183.98" y2="19.54"/><line class="cls-1" x1="96" y1="167.79" x2="25.23" y2="69.21"/><circle class="cls-2" cx="36.23" cy="80.43" r="25.22" transform="translate(-34.84 4.61) rotate(-18.66)"/><circle class="cls-2" cx="107" cy="179" r="35.31" transform="translate(-62.66 32.44) rotate(-18.66)"/><path class="cls-3" d="M99.43,156a24.38,24.38,0,1,1-15.3,30.9A24.41,24.41,0,0,1,99.43,156Zm12.92,38.24a16,16,0,1,0-20.25-10A16,16,0,0,0,112.35,194.25Z" transform="translate(-11 -11.21)"/><circle class="cls-2" cx="194.98" cy="30.75" r="15.13" transform="translate(-10.59 52.8) rotate(-18.66)"/><line class="cls-1" x1="104.43" y1="461.64" x2="65.72" y2="519.78"/><line class="cls-1" x1="205.07" y1="367.19" x2="286.11" y2="411.46"/><line class="cls-1" x1="120.39" y1="374.59" x2="104.43" y2="461.64"/><line class="cls-1" x1="120.39" y1="374.59" x2="51.89" y2="393.36"/><line class="cls-1" x1="120.39" y1="374.59" x2="205.07" y2="367.19"/><line class="cls-1" x1="120.39" y1="374.59" x2="147.59" y2="288.87"/><circle class="cls-2" cx="131.39" cy="385.81" r="22.29" transform="translate(-244.23 192.47) rotate(-44.65)"/><path class="cls-3" d="M120.44,396.46a15.39,15.39,0,1,1,21.76.13A15.41,15.41,0,0,1,120.44,396.46Zm18.12-17.9a10.08,10.08,0,1,0-.09,14.26A10.09,10.09,0,0,0,138.56,378.55Z" transform="translate(-11 -11.21)"/><circle class="cls-2" cx="115.01" cy="473.27" r="15.92" transform="translate(-310.42 206.21) rotate(-44.65)"/><circle class="cls-2" cx="62.9" cy="404.57" r="15.92" transform="translate(-277.18 149.75) rotate(-44.65)"/><circle class="cls-2" cx="76.3" cy="531.41" r="9.55" transform="translate(-362.45 195.78) rotate(-44.65)"/><circle class="cls-2" cx="158.6" cy="300.08" r="15.92" transform="translate(-176.13 186.85) rotate(-44.65)"/><circle class="cls-2" cx="216.08" cy="378.4" r="15.92" transform="translate(-214.58 249.85) rotate(-44.65)"/><circle class="cls-2" cx="297.53" cy="422.26" r="9.55" transform="translate(-221.89 319.76) rotate(-44.65)"/><line class="cls-1" x1="406" y1="409.79" x2="526.61" y2="506.47"/><line class="cls-1" x1="500.59" y1="348.39" x2="406" y2="409.79"/><circle class="cls-2" cx="417" cy="421" r="23.44" transform="translate(-184.55 458.58) rotate(-50)"/><circle class="cls-2" cx="511.59" cy="359.61" r="32.82" transform="translate(-103.74 509.11) rotate(-50)"/><path class="cls-3" d="M494.48,345a22.66,22.66,0,1,1,2.79,31.92A22.69,22.69,0,0,1,494.48,345Zm6,5a14.85,14.85,0,1,0,20.92-1.83A14.86,14.86,0,0,0,500.46,350Z" transform="translate(-11 -11.21)"/><circle class="cls-2" cx="537.61" cy="517.69" r="14.07" transform="translate(-215.54 585.5) rotate(-50)"/></svg>