<?xml version="1.0" encoding="utf-8"?>
<!-- Generator: Adobe Illustrator 20.0.0, SVG Export Plug-In . SVG Version: 6.00 Build 0)  -->
<svg version="1.1" id="Layer_1" xmlns="http://www.w3.org/2000/svg" xmlns:xlink="http://www.w3.org/1999/xlink" x="0px" y="0px"
	 viewBox="0 0 432 432" style="enable-background:new 0 0 432 432;" xml:space="preserve">
<style type="text/css">
	.st0{fill:none;}
	.st1{fill:#BE2627;}
</style>
<title>environmental_design</title>
<path class="st0" d="M42.3,272c0,96.6,78.3,175,175,175s175-78.3,175-175S314,97,217.4,97c-46.7,0-91.5,18.7-124.4,51.9L216,272
	H42.3z"/>
<path class="st0" d="M216,272L92.9,148.9c-32.5,32.7-50.7,77-50.6,123.1H216z"/>
<path class="st1" d="M356.4,146.7v139.5c-1.9,1.6-3.4,3.7-5.5,4.8c-10.7,5.4-21.5,10.6-32.3,15.8c-1.8,0.9-3.7,1.4-6.7,2.6v-80.8
	c-2.9,1-4.6,1.4-6.2,2.2c-10.8,5.1-21.5,10.5-32.4,15.4c-5.3,2.4-7.3,5.9-7.2,11.6c0.3,22,0.1,43.9,0.4,65.9
	c0.1,6.7-2.3,10.5-8.4,13.4c-13.2,6.1-26.1,12.8-39.2,19.4h-6.6c-1.2-0.9-2.5-1.7-3.8-2.4c-40.9-20.1-81.8-40.1-122.6-60.4
	c-3.8-1.9-6.8-5.5-10.2-8.3c0-45.2,0-90.5,0-135.7c2.9-2.8,5.4-6.5,8.9-8.3c27.5-14.3,55.2-28.1,82.8-42.2c15-7.7,30-15.6,45-23.5
	h6.6c0.1,0.1,0.2,0.3,0.3,0.3c43.2,21.7,86.3,43.4,129.5,65.2C351.4,142.6,353.8,144.9,356.4,146.7z M202.2,323.1
	c0.1-1.6,0.3-2.8,0.3-4c0.1-30.1,0.1-60.2,0.2-90.2c0-4.2-1.8-6.6-5.4-8.3c-30-14.8-60-29.6-89.9-44.5c-5.4-2.7-6.6-2-6.6,4
	c0,28.8,0.1,57.7-0.1,86.5c0,5,1.9,8.1,6.3,10.3c30.5,14.9,60.9,29.9,91.3,44.9C199.5,322.2,200.6,322.5,202.2,323.1z M116,152.9
	c1.8,0.9,3,1.7,4.2,2.3c29.6,14.6,59.2,29.2,88.7,44c4.7,2.3,8.6,2.3,13.2,0c29.4-15,58.9-29.8,88.4-44.7c1.2-0.6,2.3-1.3,4-2.3
	c-1.9-1-3.2-1.8-4.5-2.5c-29.3-14.9-58.6-29.7-87.8-44.7c-4.3-2.2-7.9-2.4-12.2-0.1c-22.7,11.7-45.5,23.2-68.3,34.8
	C133.2,143.8,124.9,148.2,116,152.9z"/>
</svg>
