<?xml version="1.0" encoding="utf-8"?>
<!-- Generator: Adobe Illustrator 20.0.0, SVG Export Plug-In . SVG Version: 6.00 Build 0)  -->
<svg version="1.1" id="Layer_1" xmlns="http://www.w3.org/2000/svg" xmlns:xlink="http://www.w3.org/1999/xlink" x="0px" y="0px"
	 viewBox="0 0 432 432" style="enable-background:new 0 0 432 432;" xml:space="preserve">
<style type="text/css">
	.st0{fill:#BE2627;}
</style>
<title>experience_design</title>
<path class="st0" d="M213.1,218c-2.3,2.7-4.7,5.8-7.4,8.6c-3.2,3.4-6.8,3.5-10.2,0.1c-3.4-3.4-6.8-6.8-10.2-10.2
	c-3.4-3.4-3.3-6.9,0.1-10.2c2.8-2.7,5.9-5.1,8-6.8c-3.2-8-5.7-14.5-8.4-20.9c-0.5-1.2-2-2.7-3.2-2.8c-3.6-0.4-7.3-0.1-11.5-0.1
	c0,2.4,0.3,4.2-0.1,6c-0.3,1.2-1.5,3.4-2,3.3c-8-1.1-7.2,6.3-10,10c5.5,7.1,5.6,7.7-0.6,12.3c-1.2,0.9-3.7,0.2-5.6,0
	c-1.9-0.3-4.2-1.9-5.4-1.3c-2.8,1.5-8.1,0.5-7.4,6.3c0.5,4.5-2.7,4.6-5.9,4.4c-3-0.1-6.9,1-6.6-4.2c0.2-2.8-0.6-4.6-3.6-5.2
	c-3-0.5-5.8-4.6-9.3-0.3c-3.1,3.9-5.3,0.6-7.6-1.5c-2.6-2.4-4.3-4.5-1-7.8c1-1,1.6-3.9,0.9-5c-1.5-2.5-0.3-7.6-5.3-7.2
	c-6,0.5-5.2-3.4-5.4-7.2c-0.3-4.6,2-5.9,6.1-5.5c0.6,0,1.3-0.1,1.9-0.2c1.1-2.2,2.1-4.6,2.8-7c0.4-1.5,0.3-3.8-0.6-4.7
	c-4.9-4.4-0.5-6.5,1.9-9.4c2.7-3.3,5-2.2,7.2,0.5c0.6,0.6,1.2,1.2,1.9,1.7c2.3-1,4.8-1.7,6.9-3c1.4-0.9,3.1-2.8,3.1-4.2
	c-0.1-5.1,3.1-5,6.6-5c3.6,0,6.2,0.1,6.3,4.8c0,1.5,1.8,3.4,3.3,4.5c1.7,1.3,4,1.9,6.4,2.9c3.3-4.2,6.9-6.1,11.1-0.5
	c2.9,3.8,3.3,3.6-1.8,9.4c3.3,9.5,3.3,9.5,6.8,9.6c0-5.9-0.1-11.8,0-17.6s2-7.6,7.8-7.7c3.5-0.1,7,0,10.4,0l10-23.9
	c-2.3-2-5.3-4.4-8.1-7.1c-3.4-3.3-3.4-6.8,0-10.2c3.4-3.4,6.8-6.8,10.2-10.2s7-3.1,10.2,0.2c2.6,2.6,5.1,5.3,7.5,7.8l23.4-10
	c0-3.4,0-7.2,0-11.1c0.1-4.5,2.3-6.9,6.9-6.9c4.8,0,9.6,0,14.5,0c4.8,0,7.2,2.3,7.2,7.1c0,3.7,0,7.4,0,11l23.9,10
	c2-2.2,4.4-5.3,7.1-8.1c3.3-3.4,6.8-3.4,10.2,0c3.4,3.4,6.8,6.8,10.2,10.2c3.4,3.4,3.2,6.9-0.2,10.2c-2.7,2.6-5.4,5-7.9,7.3
	l9.8,23.7c3.1,0,6.8,0.1,10.5,0c5.1-0.1,7.6,2.3,7.6,7.3c0,4.6,0,9.3,0,13.9c0,5.1-2.8,8.1-7.6,7.3c-8.7-1.3-13.2,1.7-14.8,10.5
	c-0.8,4.2-3.6,8-6.1,13.2c2.6,2.2,5.6,4.6,8.4,7.3c3.4,3.3,3.4,6.8,0,10.2c-3.4,3.4-6.8,6.8-10.2,10.2c-3.4,3.4-6.9,3.3-10.2-0.2
	c-2.6-2.8-5-5.9-6.8-8c-8.1,3.2-14.6,5.7-21.1,8.5c-1.3,0.6-2.1,2.4-3.1,3.7c-0.1,0.4-0.1,0.7,0,1.1c0.9,17.2-3,14.9-15.7,15
	c-1.9,0-3.7,0-5.6,0c-4.6-0.1-8-2.4-7.2-7.1c1.5-9.3-2.1-14-11.1-15.4c-2.1-0.3-4.1-1.7-6.1-2.7C217.9,220.7,216.2,219.7,213.1,218z
	 M290.8,160.9c-0.1-22-18.1-39.6-40-39.5c-22,0.1-39.6,18.1-39.5,40c0.1,21.9,17.9,39.5,39.8,39.5c21.8,0.1,39.6-17.4,39.7-39.2
	C290.8,161.5,290.8,161.2,290.8,160.9z M133.1,196.4c9.5,0,17.2-7.7,17.3-17.2c0-9.7-7.9-17.6-17.6-17.6c0,0,0,0,0,0
	c-9.6,0.1-17.3,7.9-17.2,17.4c0,0.2,0,0.3,0,0.5c0.1,9.5,7.9,17,17.3,16.9C133,196.4,133,196.4,133.1,196.4z"/>
<path class="st0" d="M145.1,242.2c5.3-2.1,10.5-4,15.5-6.3c1.2-0.6,2.3-2.5,2.6-4c0.5-2.7-0.4-5.9,0.6-8.2c2.9-6.2,8.8-2.7,13.4-3.3
	c3.2-0.4,6.9-0.9,8.5,3.3c0.1,0.2,0.1,0.3,0.1,0.5c-2.9,11.3,5.8,13,13.1,15.8c1.7,0.7,3.3,1.6,4.8,2.5c12.1-9.7,12.1-9.7,22,0.7
	c4.6,4.9,4.6,4.9-5,15.5c2.1,5.5,4.1,11,6.4,16.4c0.4,1,2.1,1.8,3.3,2c2.2,0.2,4.4,0.2,6.7,0.1c4,0.1,6.1,2.5,5.3,6.1
	c-1.2,5.5,4.3,15.3-4.4,15.8c-9.3,0.6-12.2,4.5-14.3,11.8c-0.7,2.4-2.2,4.6-3.4,6.8c9.8,11.7,9.8,11.7-0.4,21.6
	c-5,4.9-5,4.9-15.8-4.6c-5.5,2.1-11,4-16.4,6.5c-1.1,0.5-1.8,2.9-1.9,4.5c-0.4,10.8-0.3,10.8-11.4,10.8H172c-7.9,0-9-0.8-8.5-8.5
	c0.3-5.1-1.4-7.2-6.2-8.4c-4.1-1-7.8-3.3-11.5-4.8c-3.8,2.6-7.9,7.5-11.5,7.3c-3.8-0.3-7.5-5.3-10.9-8.6c-4.3-4.2-4.2-4.3,5.1-15.3
	c-2.1-5.4-3.9-10.8-6.4-16c-0.7-1.3-3.4-2.3-5.3-2.3c-10.1-0.3-10.2-0.3-10.2-10.4c0-1.7,0-3.3,0-5c0.1-6.3,1.2-7.7,7.6-7.2
	c5.6,0.5,8.3-1.2,9.5-6.9c0.8-3.9,3.2-7.4,4.6-10.8c-2.7-4-7.6-8.1-7.3-11.7c0.3-3.8,5.4-7.4,8.7-10.8
	C134,232.8,134.1,233,145.1,242.2z M175,256.8c-17.4-0.2-31.8,13.8-32,31.2c0,0.1,0,0.2,0,0.3c0.1,17.5,14.3,31.7,31.8,31.8
	c17.3-0.1,31.4-14.1,31.5-31.4c0.3-17.3-13.4-31.6-30.8-31.9C175.4,256.8,175.2,256.8,175,256.8z"/>
</svg>
