<?xml version="1.0" encoding="utf-8"?>
<!-- Generator: Adobe Illustrator 21.0.0, SVG Export Plug-In . SVG Version: 6.00 Build 0)  -->
<svg version="1.2" baseProfile="tiny" id="Layer_1" xmlns="http://www.w3.org/2000/svg" xmlns:xlink="http://www.w3.org/1999/xlink"
	 x="0px" y="0px" viewBox="0 0 188 31.5" overflow="scroll" xml:space="preserve">
<circle fill="#022842" cx="-50" cy="17.5" r="50"/>
<path fill="#BE2627" stroke="#BE2627" stroke-width="2" stroke-miterlimit="10" d="M-13.7,17.1c-0.8-1.1-2.1-2-3.9-2.9
	c-2.8-1.3-5.6-2.2-8.4-2.7c-2.8-0.6-5.7-0.9-8.7-1.1c-3-0.2-16.4-0.1-19.5,0.1c-0.1,0-0.1,0-0.2,0c-2.6-3.3-5-6.1-7-8.5
	c-2-2.4-3.7-4.4-5-5.9c-2.2-3.1-3.3-5.6-3.3-7.6c0-2.5,1.3-4.7,4-6.4c5.3-3.7,12.2-5.6,20.5-5.6c1.5,0,3,0.1,4.3,0.2
	c1.3,0.1,2.6,0.4,3.8,0.7c1.9,0.5,3.5,1.4,4.7,2.8c1.3,1.5,1.9,3.3,1.9,5.4c0,0.7-0.1,1.4-0.2,2c-0.1,0.6-0.1,1-0.1,1.2
	c0,0.2,0.1,0.2,0.3,0c0.2-0.2,0.4-0.5,0.5-0.9c0.3-0.6,0.5-1.2,0.6-1.9c0.1-0.6,0.2-1.2,0.2-1.8c0-1.8-0.6-3.5-1.7-5.1
	c-1.2-1.3-2.6-2.3-4.2-2.8c-2.2-0.6-4.9-0.9-8.2-0.9c-8.9,0-16.7,2-23.4,6c-3.1,1.9-4.7,4.2-4.7,7.1c0,2.6,1.3,5.4,3.9,8.6
	c2.2,2.8,4.2,5.3,6,7.6c1.8,2.2,3.4,4.3,4.9,6.1c-2.3,0.2-4.7,0.4-7.2,0.6c-0.2,0-0.8,0.1-2,0.3c-1.1,0.2-2.4,0.4-4,0.7
	c-1.6,0.3-3.2,0.7-5.1,1.2c-1.8,0.5-3.5,1-5.2,1.7c-1.7,0.7-3.1,1.4-4.4,2.2c-1.3,0.8-2.8,2-3,3.5c-0.2,1.7,1,2.9,2.2,4.1
	c1.2,1.2,2.7,2.3,4.4,2.8c2.5,0.8,5.4,1.3,8.9,1.3c2.3,0,4.6-0.2,6.8-0.6c2.2-0.4,4.3-1,6.4-1.8c4.8-1.9,7.2-4.9,7.2-9.1
	c0-1.9-0.6-3.9-1.7-5.7c2.6-0.1,15.6,0,18.2,0.1c3,0.2,5.8,0.6,8.6,1.2c2.8,0.6,5.4,1.5,7.9,2.7c1.6,0.8,2.7,1.7,3.3,2.7
	c0.5,1,0.7,2,0.6,3c-0.2,1-0.6,2-1.2,3c-0.7,1-1.4,1.8-2.3,2.5c-0.9,0.8-2,1.6-3.4,2.3c-1.4,0.8-2.8,1.6-4.4,2.3
	c-1.6,0.8-3.3,1.5-5,2.1c-1.7,0.7-3.3,1.3-4.9,1.8c-1.5,0.5-2.9,1-4.2,1.4c-1.3,0.4-5.7,0.7-6.3,0.8c0.3-0.5,0.8-1.3,1.3-2.3
	c0.6-1,1.2-2.1,1.9-3.4c0.7-1.2,0.3-0.7,1-2.1c0.7-1.3,1.4-2.6,2-3.9c0.6-1.3,1.1-2.4,1.5-3.5c0.4-1.1,0.6-1.9,0.6-2.5
	c0.1-0.6-0.2-1-0.7-1c-0.5,0-1.1,0.1-1.7,0.4c-0.6,0.3-1.1,0.6-1.5,0.9c-0.4,0.3-0.5,0.5-0.2,0.5c0.3,0,0.6,0.1,0.7,0.3
	c0.1,0.2,0.2,0.5,0.2,0.7c0,0.3,0,0.6-0.1,0.9c-0.1,0.3-0.2,0.6-0.2,0.8c-0.5,1.2-1,2.5-1.4,3.4c-0.6,1.3-0.2,0.9-0.9,2.3
	c-0.8,1.4-1.6,2.9-2.4,4.4c-0.9,1.5-1.7,3-2.6,4.4c-0.6,0.2-1.3,0.4-2.2,0.6c-0.8,0.2-1.5,0.3-1.9,0.4c-0.1,0-0.3,0.1-0.4,0.3
	c-0.1,0.2-0.1,0.3-0.1,0.5c0,0.2,0.2,0.4,0.4,0.5c0.2,0.2,0.5,0.3,0.9,0.4c0.4,0.1,0.7,0.1,0.9,0.2c0.2,0,0.5,0,0.9,0.1
	c-0.7,1.1-1.5,2.5-2.4,4.1c-0.9,1.6-1.8,3.2-2.6,4.8c-0.9,1.6-1.6,3.2-2.3,4.6c-0.7,1.5-1.1,2.6-1.3,3.5c-0.3,1-0.3,1.5,0,1.5
	c0.3-0.1,0.6-0.6,1-1.4c0.4-1.2,1.1-2.8,2.1-4.6c1-1.8,2-3.6,3-5.3c1-1.7,2-3.3,2.9-4.6c0.9-1.3,1.5-2.2,1.7-2.6
	c0.8,0,5.3,0,6.7,0.1c1.3,0.1,2.7,0.2,4.1,0.4c1.4,0.2,2.7,0.4,4,0.7c1.3,0.3,2.3,0.6,3,0.9c1.1,0.5,1.8,1.1,2.2,1.8
	c0.4,0.7,0.5,1.5,0.4,2.2c-0.1,0.8-0.5,1.5-1,2.1c-0.6,0.7-1.2,1.2-2.1,1.7c-1.9,1-4.1,1.9-6.6,2.5c-2.5,0.7-4.9,1.1-7.4,1.3
	c-0.3,0-0.6,0.1-0.9,0.3c-0.3,0.1-0.4,0.3-0.5,0.4c0,0.2,0.1,0.3,0.4,0.4c0.3,0.1,0.8,0.2,1.6,0.1c3.1-0.2,5.8-0.7,8.1-1.5
	c2.3-0.8,4.6-1.9,6.5-3.4c1.7-1.4,4.4-3.9,3.8-6.2c-0.2-0.8-0.9-1.7-2.1-2.5c-0.4-0.3-1.1-0.6-2-1c-0.9-0.4-1.9-0.7-3.1-1
	c-1.2-0.3-2.5-0.6-3.9-0.8c-1.4-0.2-2.9-0.3-4.4-0.3c-0.6,0-4.4-0.2-4.4-0.4c0-0.2,3.7-0.5,4.3-0.6c1.6-0.4,3.4-1,5.5-1.6
	c2.1-0.7,4.3-1.4,6.5-2.3c2.2-0.9,4.4-1.9,6.6-3c2.2-1.1,4.1-2.3,5.9-3.6c1.4-1,2.6-2.2,3.4-3.4c0.8-1.2,1.2-2.5,1.3-3.7
	C-12.5,19.4-12.9,18.2-13.7,17.1z M-82.6,26.1 M-59.7,25c-2,0.9-4.1,1.6-6.3,2.1c-1.9,0.4-3.9,0.6-5.8,0.7c-2.1,0.1-4.2,0.1-6.2-0.4
	c-2.3-0.5-4.4-1.6-5.9-3.3c-0.5-0.6-1-1.2-1-2c-0.1-1.2,0.9-2,1.8-2.7c1.1-0.9,2.4-1.6,3.7-2.2c3.4-1.7,7.8-3,13.1-4
	c1.3-0.3,2.8-0.5,4.5-0.8c1-0.2,2.1-0.3,3.2-0.5c0.9-0.1,1.9-0.1,2.8-0.2c1.4,1.7,2.2,3.5,2.2,5.6C-53.7,20.6-55.7,23.2-59.7,25z"/>
<g>
	<rect x="7.5" y="3.8" fill="none" width="180.5" height="31.5"/>
	<path fill="#636363" d="M8.2,23.2l5.6-1.1c0,0.6,0,1,0,1.5s0.1,0.9,0.2,1.4c0.1,0.5,0.2,0.9,0.3,1.2c0.1,0.3,0.4,0.6,0.6,0.8
		c0.3,0.2,0.6,0.3,0.9,0.3c1.1,0,1.6-0.7,1.6-2.1c0-1.9-1.1-3.8-3.2-5.7l-1.7-1.5c-0.5-0.5-1-0.8-1.3-1.1c-0.3-0.3-0.7-0.7-1.1-1.2
		c-0.4-0.5-0.8-1-1-1.5c-0.2-0.5-0.5-1.1-0.6-1.7c-0.2-0.7-0.3-1.4-0.3-2.1c0-2.2,0.7-4,2.1-5.2c1.4-1.3,3.3-1.9,5.6-1.9
		c1.9,0,3.6,0.7,4.9,2.1c1.4,1.4,2,3,2,5l0,0.2c0,0.1,0,0.3,0,0.5l-5.7,0.8c0-0.1,0-0.3,0-0.5c0-0.2,0-0.4,0-0.6c0-0.4,0-0.7-0.1-1
		s-0.1-0.7-0.3-1s-0.3-0.6-0.5-0.8c-0.2-0.2-0.5-0.3-0.9-0.3c-0.6,0-1.1,0.2-1.4,0.7c-0.3,0.5-0.5,1-0.5,1.7c0,0.6,0.1,1.1,0.3,1.6
		c0.2,0.5,0.4,1,0.8,1.4c0.4,0.4,0.7,0.8,1,1.1c0.3,0.3,0.7,0.6,1.2,1c0.5,0.4,0.9,0.7,1.1,0.9c0.8,0.7,1.4,1.3,2,1.9
		c0.5,0.6,1,1.3,1.5,2c0.5,0.8,0.8,1.6,1.1,2.5c0.2,0.9,0.4,1.8,0.4,2.8c0,1.9-0.7,3.5-2,4.7s-3,1.8-5,1.8c-1.3,0-2.4-0.2-3.4-0.7
		c-1-0.5-1.8-1.1-2.4-1.9s-1.1-1.7-1.4-2.6S8.2,24.3,8.2,23.2z"/>
	<path fill="#636363" d="M29.2,31V7.9h-4V3.8h13.4v4.1h-3.9V31H29.2z"/>
	<path fill="#636363" d="M42,31V3.8h11.4v3.8h-5.9V15h4.1v3.9h-4.1v8.4h5.9V31H42z"/>
	<path fill="#636363" d="M60.5,31l-5-27.2h5.2l2.4,16.5l2.7-16.5h5.1L65.5,31H60.5z"/>
	<path fill="#636363" d="M74.2,31V3.8h5.5V31H74.2z"/>
	<path fill="#636363" d="M84.5,31V3.8h11.4v3.8h-5.9V15h4.1v3.9h-4.1v8.4h5.9V31H84.5z"/>
	<path fill="#636363" d="M107.2,31V3.8h5.6c1,0,1.9,0.1,2.7,0.2c0.8,0.1,1.5,0.3,2.3,0.6c0.7,0.3,1.4,0.7,1.8,1.2
		c0.5,0.5,0.9,1.2,1.2,2c0.3,0.8,0.4,1.8,0.4,3c0,1.4-0.3,2.5-1,3.4c-0.7,0.8-1.7,1.5-3.1,1.9c3.2,0.8,4.9,3.1,4.9,6.9
		c0,2.7-0.7,4.8-2,6.1s-3.3,2-6,2H107.2z M112.7,14.5h0.9c0.5,0,0.9-0.1,1.3-0.3c0.3-0.2,0.6-0.5,0.8-0.8c0.2-0.4,0.3-0.8,0.4-1.2
		c0.1-0.4,0.1-0.9,0.1-1.5c0-0.5,0-0.9-0.1-1.2c-0.1-0.3-0.1-0.6-0.2-0.9c-0.1-0.2-0.2-0.4-0.4-0.6s-0.4-0.3-0.5-0.3
		c-0.1-0.1-0.4-0.1-0.7-0.2c-0.3,0-0.5-0.1-0.7-0.1s-0.5,0-0.8,0V14.5z M112.7,27.1h0.5c0.7,0,1.3-0.1,1.7-0.2
		c0.4-0.2,0.8-0.5,1-0.9c0.2-0.4,0.4-0.9,0.5-1.4c0.1-0.5,0.1-1.2,0.1-2.1c0-1.4-0.3-2.5-0.8-3.3c-0.5-0.8-1.3-1.2-2.6-1.2h-0.5
		V27.1z"/>
	<path fill="#636363" d="M124.5,31l5.9-27.2h4.9l5.9,27.2h-5.4l-1.1-5.8H131L130,31H124.5z M131.4,21.8h2.8l-1.4-10.1L131.4,21.8z"
		/>
	<path fill="#636363" d="M144.5,31V3.8h5.5v23.5h5.4V31H144.5z"/>
	<path fill="#636363" d="M158.7,31V3.8h11.4v3.8h-5.9V15h4.1v3.9h-4.1v8.4h5.9V31H158.7z"/>
	<path fill="#636363" d="M172.6,23.2l5.6-1.1c0,0.6,0,1,0,1.5s0.1,0.9,0.2,1.4c0.1,0.5,0.2,0.9,0.3,1.2c0.1,0.3,0.4,0.6,0.6,0.8
		c0.3,0.2,0.6,0.3,0.9,0.3c1.1,0,1.6-0.7,1.6-2.1c0-1.9-1.1-3.8-3.2-5.7l-1.7-1.5c-0.5-0.5-1-0.8-1.3-1.1c-0.3-0.3-0.7-0.7-1.1-1.2
		c-0.4-0.5-0.8-1-1-1.5c-0.2-0.5-0.5-1.1-0.6-1.7c-0.2-0.7-0.3-1.4-0.3-2.1c0-2.2,0.7-4,2.1-5.2c1.4-1.3,3.3-1.9,5.6-1.9
		c1.9,0,3.6,0.7,4.9,2.1c1.4,1.4,2,3,2,5l0,0.2c0,0.1,0,0.3,0,0.5l-5.7,0.8c0-0.1,0-0.3,0-0.5c0-0.2,0-0.4,0-0.6c0-0.4,0-0.7-0.1-1
		s-0.1-0.7-0.3-1s-0.3-0.6-0.5-0.8c-0.2-0.2-0.5-0.3-0.9-0.3c-0.6,0-1.1,0.2-1.4,0.7c-0.3,0.5-0.5,1-0.5,1.7c0,0.6,0.1,1.1,0.3,1.6
		c0.2,0.5,0.4,1,0.8,1.4c0.4,0.4,0.7,0.8,1,1.1c0.3,0.3,0.7,0.6,1.2,1c0.5,0.4,0.9,0.7,1.1,0.9c0.8,0.7,1.4,1.3,2,1.9
		c0.5,0.6,1,1.3,1.5,2c0.5,0.8,0.8,1.6,1.1,2.5c0.2,0.9,0.4,1.8,0.4,2.8c0,1.9-0.7,3.5-2,4.7s-3,1.8-5,1.8c-1.3,0-2.4-0.2-3.4-0.7
		c-1-0.5-1.8-1.1-2.4-1.9s-1.1-1.7-1.4-2.6S172.7,24.3,172.6,23.2z"/>
</g>
<g>
</g>
<g>
</g>
<g>
</g>
<g>
</g>
<g>
</g>
<g>
</g>
<g>
</g>
<g>
</g>
<g>
</g>
<g>
</g>
<g>
</g>
<g>
</g>
<g>
</g>
<g>
</g>
<g>
</g>
</svg>
