<?xml version="1.0" encoding="utf-8"?>
<!-- Generator: Adobe Illustrator 21.0.2, SVG Export Plug-In . SVG Version: 6.00 Build 0)  -->
<svg version="1.1" id="Layer_1" xmlns="http://www.w3.org/2000/svg" xmlns:xlink="http://www.w3.org/1999/xlink" x="0px" y="0px"
	 viewBox="0 0 468 108" style="enable-background:new 0 0 468 108;" xml:space="preserve">
<style type="text/css">
	.st0{fill:#BE2628;}
	.st1{fill:#042842;}
</style>
<title>logo</title>
<path class="st0" d="M19.5,71.1l4.7-1.5c0.2,1.7,0.5,3.4,1,5c0.5,1.5,1.2,3,2,4.3c0.8,1.3,1.9,2.4,3.2,3.1c1.4,0.8,3,1.2,4.6,1.1
	c2.4,0.1,4.7-0.8,6.4-2.5c1.5-1.6,2.3-4,2.3-7c0-2.6-0.7-5-2.1-7.2c-1.8-2.8-3.8-5.5-6.1-8l-9.5-10.6c-1.8-2-3.4-4.2-4.8-6.6
	c-1.1-2-1.7-4.2-1.7-6.4c-0.2-3.8,1.2-7.5,3.9-10.2c2.7-2.6,6.3-4,10.1-3.8c3.6-0.2,7,1.1,9.6,3.6c2.4,2.4,4,5.9,4.8,10.5l0.1,0.6
	L43.7,37l-0.1-0.5c-0.3-2.9-1.5-5.7-3.3-8c-1.6-2-4.1-3.2-6.7-3.1c-2.3-0.1-4.6,0.7-6.4,2.2c-1.6,1.5-2.4,3.6-2.4,6.5
	c0,1.8,0.5,3.5,1.3,5.1c1,1.9,2.3,3.7,3.7,5.3l9,10.4l1.8,2.1l1.9,2.2c0.3,0.4,0.8,1,1.6,2c0.6,0.7,1.1,1.5,1.6,2.3l1.3,2.2
	c0.5,0.8,0.8,1.7,1.1,2.6c0.2,0.7,0.4,1.5,0.6,2.5c0.2,0.9,0.3,1.8,0.3,2.8c0,4.7-1.3,8.2-4,10.7c-2.8,2.6-6.5,3.9-10.4,3.8
	c-2,0-4.1-0.4-5.9-1.3c-1.7-0.9-3.3-2.1-4.5-3.7c-1.3-1.6-2.3-3.4-3-5.3C20.3,75.4,19.8,73.3,19.5,71.1z"/>
<path class="st0" d="M72.1,86.8V26.4H60.2v-4.6h29.2v4.6h-12v60.4H72.1z"/>
<path class="st0" d="M104.2,86.8v-65h21.2v4.6h-15.8V51h11.3v4.3h-11.3v26.8h15.8v4.6H104.2z"/>
<path class="st0" d="M151.5,86.8l-13.1-65h5.8L155,80l10.3-58.2h5.8l-12.6,65L151.5,86.8z"/>
<path class="st0" d="M187.5,86.8v-65h5.4v65H187.5z"/>
<path class="st0" d="M214.1,86.8v-65h21.2v4.6h-15.8V51h11.3v4.3h-11.3v26.8h15.9v4.6H214.1z"/>
<path class="st1" d="M253.1,86.8v-65h13.1c1.9,0,3.8,0.3,5.6,0.9c1.5,0.5,2.9,1.4,4,2.5c1,1.1,1.9,2.4,2.5,3.7
	c0.6,1.4,1.1,2.9,1.3,4.5c0.3,1.6,0.4,3.2,0.4,4.9c0,2.7-0.6,5.4-1.8,7.9c-0.9,2.3-2.6,4.2-4.8,5.4c1.4,0.6,2.7,1.6,3.8,2.8
	c1.1,1.2,1.9,2.6,2.4,4.1c0.6,1.5,1,3,1.2,4.5c0.3,1.5,0.4,3,0.4,4.5c0,2-0.1,4-0.3,6c-0.2,1.8-0.6,3.5-1.2,5.2
	c-0.5,1.6-1.3,3.1-2.4,4.3c-1.1,1.2-2.5,2.2-4,2.8c-1.9,0.7-3.9,1.1-6,1.1L253.1,86.8z M258.5,49.7h8.6c1.2,0,2.4-0.3,3.4-0.9
	c1-0.6,1.7-1.5,2.2-2.6c0.5-1.1,0.9-2.3,1.1-3.6c0.2-1.4,0.4-2.8,0.4-4.2c0-8.2-2.9-12.2-8.7-12.2h-7V49.7z M258.5,82.4h9.6
	c1.1,0,2.2-0.3,3.2-0.8c0.9-0.5,1.7-1.3,2.2-2.1c0.6-1,1.1-2.1,1.4-3.3c0.3-1.3,0.6-2.7,0.7-4.1c0.1-1.4,0.2-2.9,0.2-4.7
	c0-1.5-0.1-2.9-0.2-4.1c-0.1-1.2-0.4-2.4-0.7-3.6c-0.3-1.1-0.7-2.1-1.3-3c-0.6-0.8-1.3-1.5-2.2-1.9c-1-0.5-2.1-0.7-3.3-0.7h-9.6
	V82.4z"/>
<path class="st1" d="M301.4,86.8H296l12-65h7l12,65h-5.5l-3-16.9h-14L301.4,86.8z M305.1,66h12.7l-6.4-38.3L305.1,66z"/>
<path class="st1" d="M344.7,86.8v-65h5.4v60.4h17v4.6H344.7z"/>
<path class="st1" d="M382.9,86.8v-65h21.2v4.6h-15.8V51h11.3v4.3h-11.3v26.8h15.8v4.6H382.9z"/>
<path class="st1" d="M419.1,71.1l4.7-1.5c0.2,1.7,0.5,3.4,1,5c0.5,1.5,1.2,3,2,4.3c0.8,1.3,1.9,2.4,3.2,3.1c1.4,0.8,3,1.2,4.6,1.1
	c2.4,0.1,4.7-0.8,6.4-2.5c1.5-1.6,2.3-4,2.3-7c0-2.6-0.7-5-2.1-7.2c-1.8-2.8-3.8-5.5-6.1-8l-9.5-10.7c-1.8-2-3.4-4.2-4.8-6.6
	c-1.1-2-1.7-4.2-1.7-6.4c-0.2-3.8,1.2-7.5,3.9-10.2c2.7-2.6,6.3-4,10.1-3.8c3.6-0.2,7,1.1,9.6,3.6c2.4,2.4,4,5.9,4.9,10.5l0.1,0.6
	l-4.5,1.6l-0.1-0.5c-0.3-2.9-1.5-5.7-3.3-8c-1.6-2-4.1-3.2-6.7-3.1c-2.3-0.1-4.6,0.7-6.4,2.2c-1.6,1.5-2.4,3.6-2.4,6.5
	c0,1.8,0.5,3.5,1.3,5.1c1,1.9,2.3,3.7,3.7,5.3l9,10.4l1.8,2.1l1.8,2.2c0.3,0.4,0.8,1,1.6,2c0.6,0.7,1.1,1.5,1.6,2.3l1.3,2.2
	c0.5,0.8,0.8,1.6,1.1,2.5c0.2,0.7,0.4,1.5,0.6,2.5c0.2,0.9,0.3,1.8,0.3,2.8c0,4.7-1.3,8.2-4,10.7c-2.8,2.6-6.6,3.9-10.4,3.8
	c-2,0-4.1-0.4-5.9-1.3c-1.7-0.9-3.3-2.1-4.5-3.7c-1.3-1.6-2.3-3.4-3-5.3C419.9,75.4,419.4,73.3,419.1,71.1z"/>
</svg>
