<svg xmlns="http://www.w3.org/2000/svg" viewBox="0 0 468 108"><defs><style>.a{opacity:0.75;}.b{fill:#fff;}.c{fill:#636464;}.d{fill:#be2628;}.e{fill:#042842;}</style></defs><title>logo</title><g class="a"><rect class="b" width="468" height="108"/></g><path class="c" d="M463,5v98H5V5H463m5-5H0V108H468V0Z"/><path class="d" d="M19.5,71.08l4.74-1.47a25.53,25.53,0,0,0,1,5,18.57,18.57,0,0,0,2,4.29A8.91,8.91,0,0,0,30.48,82a9.32,9.32,0,0,0,4.62,1.13,8.27,8.27,0,0,0,6.4-2.46q2.26-2.46,2.26-7a13.92,13.92,0,0,0-2.07-7.22,54.62,54.62,0,0,0-6.1-8L26.08,47.84a36.31,36.31,0,0,1-4.77-6.57,13.26,13.26,0,0,1-1.66-6.42,13.57,13.57,0,0,1,3.93-10.2,13.86,13.86,0,0,1,10.08-3.82,13.08,13.08,0,0,1,9.62,3.61Q46.91,28,48.11,34.92l.11.6L43.69,37l-.07-.53a15.78,15.78,0,0,0-3.27-8,8.29,8.29,0,0,0-6.7-3.1,9.13,9.13,0,0,0-6.42,2.19q-2.39,2.19-2.39,6.46a10.9,10.9,0,0,0,1.29,5.06,28.07,28.07,0,0,0,3.7,5.29l8.95,10.39,1.77,2.06,1.86,2.17q.44.53,1.63,2a21.53,21.53,0,0,1,1.63,2.29l1.26,2.19A11.44,11.44,0,0,1,48,68.06q.3,1.06.58,2.46a13.88,13.88,0,0,1,.28,2.76q0,7-4,10.73A14.53,14.53,0,0,1,34.5,87.78a12.9,12.9,0,0,1-5.91-1.34,13.07,13.07,0,0,1-4.47-3.68,20.94,20.94,0,0,1-3-5.29A28.83,28.83,0,0,1,19.5,71.08Z"/><path class="d" d="M72.07,86.76V26.35H60.22V21.74H89.4v4.61h-12V86.76Z"/><path class="d" d="M104.15,86.76v-65h21.22v4.61H109.53V51h11.32v4.34H109.53V82.15h15.85v4.61Z"/><path class="d" d="M151.49,86.76l-13.09-65h5.8L155,80l10.33-58.22h5.8l-12.59,65Z"/><path class="d" d="M187.53,86.76v-65h5.38v65Z"/><path class="d" d="M214.14,86.76v-65h21.22v4.61H219.52V51h11.32v4.34H219.52V82.15h15.85v4.61Z"/><path class="e" d="M253.12,86.76v-65h13.09a15.42,15.42,0,0,1,5.59.94,11,11,0,0,1,4,2.49,12.56,12.56,0,0,1,2.49,3.74,18.22,18.22,0,0,1,1.34,4.46,30.18,30.18,0,0,1,.37,4.87,18.9,18.9,0,0,1-1.75,7.9,10.49,10.49,0,0,1-4.83,5.37,10.5,10.5,0,0,1,3.75,2.78,13.34,13.34,0,0,1,2.44,4.1,25.1,25.1,0,0,1,1.24,4.51,26.21,26.21,0,0,1,.39,4.48,53.15,53.15,0,0,1-.3,6,24.84,24.84,0,0,1-1.2,5.23,12.82,12.82,0,0,1-2.39,4.33,10.68,10.68,0,0,1-4,2.76,15.61,15.61,0,0,1-6,1.06Zm5.38-37.1h8.63a6.06,6.06,0,0,0,3.4-.93,6.12,6.12,0,0,0,2.19-2.57,14.39,14.39,0,0,0,1.13-3.57,23.54,23.54,0,0,0,.35-4.23q0-12.24-8.7-12.24h-7Zm0,32.72h9.62a6.23,6.23,0,0,0,3.22-.81,6.57,6.57,0,0,0,2.23-2.13,11.37,11.37,0,0,0,1.36-3.32,26.36,26.36,0,0,0,.71-4.08q.19-2.08.19-4.65,0-2.3-.18-4.12a20,20,0,0,0-.69-3.59,10,10,0,0,0-1.34-3,6,6,0,0,0-2.23-1.91,7.08,7.08,0,0,0-3.27-.72H258.5Z"/><path class="e" d="M301.38,86.76H296l12-65h7l12,65h-5.45l-3-16.93h-14ZM305.12,66h12.73l-6.4-38.31Z"/><path class="e" d="M344.71,86.76v-65h5.38V82.15h17v4.61Z"/><path class="e" d="M382.88,86.76v-65H404.1v4.61H388.26V51h11.32v4.34H388.26V82.15H404.1v4.61Z"/><path class="e" d="M419.11,71.08l4.74-1.47a25.53,25.53,0,0,0,1,5,18.61,18.61,0,0,0,2,4.29A8.91,8.91,0,0,0,430.09,82a9.32,9.32,0,0,0,4.62,1.13,8.27,8.27,0,0,0,6.4-2.46q2.26-2.46,2.26-7a13.92,13.92,0,0,0-2.07-7.22,54.62,54.62,0,0,0-6.1-8l-9.51-10.69a36.31,36.31,0,0,1-4.77-6.57,13.27,13.27,0,0,1-1.66-6.42,13.57,13.57,0,0,1,3.93-10.2,13.86,13.86,0,0,1,10.08-3.82,13.08,13.08,0,0,1,9.62,3.61q3.64,3.61,4.85,10.48l.11.6L443.3,37l-.07-.53a15.78,15.78,0,0,0-3.27-8,8.29,8.29,0,0,0-6.7-3.1,9.13,9.13,0,0,0-6.42,2.19q-2.39,2.19-2.39,6.46a10.9,10.9,0,0,0,1.29,5.06,28.09,28.09,0,0,0,3.7,5.29l8.95,10.39,1.77,2.06L442,59.07q.44.53,1.63,2a21.46,21.46,0,0,1,1.63,2.29l1.26,2.19a11.44,11.44,0,0,1,1.11,2.47q.3,1.06.58,2.46a13.88,13.88,0,0,1,.28,2.76q0,7-4,10.73a14.53,14.53,0,0,1-10.38,3.78,12.9,12.9,0,0,1-5.91-1.34,13.07,13.07,0,0,1-4.47-3.68,21,21,0,0,1-3-5.29A28.83,28.83,0,0,1,419.11,71.08Z"/></svg>