<svg xmlns="http://www.w3.org/2000/svg" viewBox="0 0 108 108"><defs><style>.a{opacity:0.75;}.b{fill:#fff;}.c{fill:#042842;}.d{fill:#be2628;}.e{fill:#636464;}</style></defs><title>logo</title><g class="a"><rect class="b" width="108" height="108"/></g><path class="c" d="M58.64,89V19H72.56a16.22,16.22,0,0,1,5.94,1,11.72,11.72,0,0,1,4.21,2.68,13.52,13.52,0,0,1,2.65,4,19.76,19.76,0,0,1,1.43,4.79,32.82,32.82,0,0,1,.39,5.24,20.53,20.53,0,0,1-1.86,8.49,11.23,11.23,0,0,1-5.13,5.77,11.17,11.17,0,0,1,4,3,14.38,14.38,0,0,1,2.59,4.41,27.23,27.23,0,0,1,1.32,4.86,28.5,28.5,0,0,1,.41,4.81,57.81,57.81,0,0,1-.32,6.46,27,27,0,0,1-1.28,5.63,13.84,13.84,0,0,1-2.54,4.65,11.35,11.35,0,0,1-4.29,3A16.43,16.43,0,0,1,73.68,89Zm5.72-39.9h9.18a6.39,6.39,0,0,0,3.61-1,6.56,6.56,0,0,0,2.33-2.76,15.6,15.6,0,0,0,1.2-3.84,25.6,25.6,0,0,0,.38-4.55q0-13.16-9.25-13.16H64.36Zm0,35.19H74.59A6.56,6.56,0,0,0,78,83.38a7,7,0,0,0,2.37-2.3,12.3,12.3,0,0,0,1.45-3.58,28.64,28.64,0,0,0,.75-4.39q.21-2.23.21-5,0-2.48-.19-4.43a21.67,21.67,0,0,0-.73-3.86,10.83,10.83,0,0,0-1.43-3.19,6.41,6.41,0,0,0-2.37-2.05,7.45,7.45,0,0,0-3.48-.77H64.36Z"/><path class="d" d="M19.5,72l5-1.58a27.73,27.73,0,0,0,1.07,5.4,20.08,20.08,0,0,0,2.09,4.61,9.52,9.52,0,0,0,3.48,3.35A9.82,9.82,0,0,0,36.08,85a8.74,8.74,0,0,0,6.81-2.64q2.41-2.64,2.41-7.48a15.1,15.1,0,0,0-2.2-7.76,58.69,58.69,0,0,0-6.49-8.61L26.49,47.05A39,39,0,0,1,21.42,40a14.39,14.39,0,0,1-1.77-6.91q0-6.87,4.17-11A14.64,14.64,0,0,1,34.54,18a13.82,13.82,0,0,1,10.23,3.88q3.87,3.88,5.15,11.28l.11.65-4.81,1.63-.08-.57a17.08,17.08,0,0,0-3.48-8.57A8.77,8.77,0,0,0,34.54,23a9.64,9.64,0,0,0-6.83,2.36q-2.54,2.36-2.54,6.95a11.83,11.83,0,0,0,1.37,5.44,30.19,30.19,0,0,0,3.93,5.69L40,54.57l1.88,2.21,2,2.34q.47.57,1.73,2.19a23.16,23.16,0,0,1,1.73,2.46l1.33,2.36a12.37,12.37,0,0,1,1.18,2.66q.32,1.14.62,2.64a15.09,15.09,0,0,1,.3,3q0,7.48-4.27,11.54a15.35,15.35,0,0,1-11,4.06,13.59,13.59,0,0,1-6.28-1.44,13.93,13.93,0,0,1-4.76-4,22.59,22.59,0,0,1-3.16-5.69A31.29,31.29,0,0,1,19.5,72Z"/><path class="e" d="M103,5v98H5V5h98m5-5H0V108H108V0Z"/></svg>