<?xml version="1.0" encoding="utf-8"?>
<!-- Generator: Adobe Illustrator 21.0.2, SVG Export Plug-In . SVG Version: 6.00 Build 0)  -->
<svg version="1.1" id="Layer_1" xmlns="http://www.w3.org/2000/svg" xmlns:xlink="http://www.w3.org/1999/xlink" x="0px" y="0px"
	 viewBox="0 0 108 108" style="enable-background:new 0 0 108 108;" xml:space="preserve">
<style type="text/css">
	.st0{fill:#042842;}
	.st1{fill:#BE2628;}
</style>
<title>logo</title>
<path class="st0" d="M58.6,89V19h13.9c2,0,4,0.3,5.9,1c1.6,0.6,3,1.5,4.2,2.7c1.1,1.2,2,2.5,2.7,4c0.7,1.5,1.2,3.1,1.4,4.8
	c0.3,1.7,0.4,3.5,0.4,5.2c0,2.9-0.6,5.8-1.9,8.5c-1,2.5-2.8,4.5-5.1,5.8c1.5,0.7,2.9,1.7,4,3c1.1,1.3,2,2.8,2.6,4.4
	c0.6,1.6,1,3.2,1.3,4.9c0.3,1.6,0.4,3.2,0.4,4.8c0,2.2-0.1,4.3-0.3,6.5c-0.2,1.9-0.7,3.8-1.3,5.6c-0.5,1.7-1.4,3.3-2.5,4.7
	c-1.2,1.3-2.6,2.3-4.3,3c-2,0.8-4.2,1.2-6.4,1.2H58.6z M64.4,49.1h9.2c1.3,0,2.5-0.3,3.6-1c1-0.7,1.8-1.6,2.3-2.8
	c0.6-1.2,1-2.5,1.2-3.8c0.3-1.5,0.4-3,0.4-4.5c0-8.8-3.1-13.2-9.3-13.2h-7.4V49.1z M64.4,84.3h10.2c1.2,0,2.4-0.3,3.4-0.9
	c1-0.6,1.8-1.4,2.4-2.3c0.7-1.1,1.2-2.3,1.4-3.6c0.4-1.4,0.6-2.9,0.8-4.4c0.1-1.5,0.2-3.2,0.2-5c0-1.7-0.1-3.1-0.2-4.4
	c-0.1-1.3-0.4-2.6-0.7-3.9c-0.3-1.1-0.8-2.2-1.4-3.2c-0.6-0.9-1.4-1.6-2.4-2c-1.1-0.5-2.3-0.8-3.5-0.8H64.4V84.3z"/>
<path class="st1" d="M19.5,72l5-1.6c0.2,1.8,0.5,3.6,1.1,5.4c0.5,1.6,1.2,3.2,2.1,4.6c0.9,1.4,2.1,2.6,3.5,3.3
	c1.5,0.8,3.2,1.3,4.9,1.2c2.5,0.2,5-0.8,6.8-2.6c1.6-1.8,2.4-4.3,2.4-7.5c0-2.7-0.8-5.4-2.2-7.8c-1.9-3.1-4.1-5.9-6.5-8.6L26.5,47
	c-1.9-2.2-3.6-4.5-5.1-7c-1.2-2.1-1.8-4.5-1.8-6.9c0-4.6,1.4-8.2,4.2-11c2.9-2.8,6.7-4.2,10.7-4.1c3.8-0.2,7.5,1.2,10.2,3.9
	c2.6,2.6,4.3,6.3,5.2,11.3l0.1,0.7l-4.8,1.6l-0.1-0.6c-0.3-3.1-1.6-6.1-3.5-8.6c-1.7-2.2-4.4-3.4-7.1-3.3c-2.5-0.1-4.9,0.7-6.8,2.4
	c-1.7,1.6-2.5,3.9-2.5,7c0,1.9,0.5,3.8,1.4,5.4c1.1,2,2.4,4,3.9,5.7L40,54.6l1.9,2.2l2,2.3c0.3,0.4,0.9,1.1,1.7,2.2
	c0.6,0.8,1.2,1.6,1.7,2.5l1.3,2.4c0.5,0.8,0.9,1.7,1.2,2.7c0.2,0.8,0.4,1.6,0.6,2.6c0.2,1,0.3,2,0.3,3c0,5-1.4,8.8-4.3,11.5
	c-3,2.8-6.9,4.2-11,4.1c-2.2,0-4.3-0.5-6.3-1.4c-1.9-1-3.5-2.3-4.8-4c-1.3-1.7-2.4-3.7-3.2-5.7C20.4,76.7,19.8,74.4,19.5,72z"/>
</svg>
