<?xml version="1.0" encoding="utf-8"?>
<!-- Generator: Adobe Illustrator 20.0.0, SVG Export Plug-In . SVG Version: 6.00 Build 0)  -->
<svg version="1.1" id="Layer_1" xmlns="http://www.w3.org/2000/svg" xmlns:xlink="http://www.w3.org/1999/xlink" x="0px" y="0px"
	 viewBox="0 0 400 400" style="enable-background:new 0 0 400 400;" xml:space="preserve">
<style type="text/css">
	.st0{fill:#BE2627;}
</style>
<title>process02_concept</title>
<path class="st0" d="M199.9,315.3c-9.2,0-18.4,0-27.6,0c-4.8,0-7.4-2.1-7.4-5.9s2.5-6.1,7.3-6.1c18.5-0.1,37-0.1,55.6,0
	c4.8,0,7.6,2.5,7.5,6.3c-0.1,3.6-2.9,5.7-7.7,5.7C218.3,315.4,209.1,315.4,199.9,315.3L199.9,315.3L199.9,315.3z"/>
<path class="st0" d="M200.3,337.9c9.1,0,18.1,0,27.2,0c5,0,7.7,2.2,7.6,6.1c0,3.6-2.8,5.9-7.5,6c-18.4,0-36.8,0-55.2,0
	c-4.9,0-7.7-2.4-7.6-6.1c0.1-3.7,2.7-5.9,7.8-5.9C181.9,337.9,191.1,337.9,200.3,337.9z"/>
<path class="st0" d="M200,320.7c9.2,0,18.4,0,27.6,0c4.9,0,7.5,2.1,7.5,5.8s-2.5,6-7.3,6c-18.7,0.1-37.3,0.1-56,0
	c-4.5,0-7-2.3-6.9-6c0.1-3.7,2.6-5.8,7.1-5.8C181.3,320.7,190.6,320.7,200,320.7z"/>
<path class="st0" d="M132.9,254c-1.4,2.2-2,3.9-3.2,5c-8.7,8.3-17.4,16.5-26.3,24.6c-3.1,2.8-6.8,2.8-9.6,0.3s-2.7-5.9,0.3-8.8
	c8.7-8.2,17.5-16.4,26.3-24.6c2.1-2,4.8-3,7.4-1.5C129.8,250.2,131.2,252.3,132.9,254z"/>
<path class="st0" d="M309,280.3c-1.8,1.8-3.1,3.8-5.1,4.9c-2.6,1.5-5.3,0.4-7.4-1.5c-5.8-5.3-11.5-10.7-17.2-16.1
	c-3-2.8-6.1-5.7-9.1-8.6c-3-2.9-3-6.4-0.3-8.8s6.6-2.4,9.6,0.4c8.8,8.1,17.6,16.4,26.3,24.6C307.1,276.4,307.7,278.1,309,280.3z"/>
<path class="st0" d="M274.1,125.8c-2-1.6-4.2-2.7-5.4-4.4c-1.6-2.3-0.8-4.8,1.4-6.8c4.7-4.3,9.5-8.7,14.2-13
	c4-3.6,7.9-7.3,11.9-10.8c3.3-3,7-3.2,9.9-0.6c2.9,2.6,2.8,6-0.5,9c-8.6,7.9-17.2,15.8-25.9,23.6
	C278.4,123.8,276.5,124.4,274.1,125.8z"/>
<path class="st0" d="M132.8,119.5c-1.6,1.6-2.9,3.8-4.9,4.8c-2.6,1.4-5.3,0.5-7.4-1.4c-7.9-7.2-15.7-14.4-23.5-21.5
	c-1.1-1-2.4-2-3.4-3.2c-2.2-2.1-2.3-5.6-0.2-7.8c0.2-0.2,0.3-0.3,0.5-0.5c2.5-2.3,6.2-2.4,8.8-0.2c9.3,8.4,18.5,16.8,27.7,25.4
	C131.3,116,131.7,117.4,132.8,119.5z"/>
<path class="st0" d="M75.8,180.8c6.1,0,12.2,0,18.3,0c4.7,0,7.5,2.3,7.5,5.9s-2.8,6-7.4,6c-12.2,0.1-24.4,0.1-36.6,0
	c-4.7,0-7.5-2.4-7.5-5.9s2.9-5.9,7.5-5.9C63.6,180.9,69.7,180.9,75.8,180.8L75.8,180.8L75.8,180.8z"/>
<path class="st0" d="M323.9,192.7c-6,0-12,0-17.9,0c-4.9-0.1-7.6-2.4-7.5-6.2c0.1-3.6,2.8-5.6,7.7-5.6c12.1,0,24.1,0,36.2,0
	c4.6,0,7.6,2.3,7.6,5.8s-2.8,6-7.4,6C336.4,192.7,330.1,192.6,323.9,192.7L323.9,192.7L323.9,192.7z"/>
<path class="st0" d="M193.2,73.4c0-5.6-0.1-11.1,0-16.7c0-4,2.6-6.6,6.3-6.7c3.7-0.1,6.6,2.5,6.7,6.7c0.1,11.1,0.1,22.3,0,33.4
	c0,3.6-2.9,6.5-6.5,6.5s-6.5-2.9-6.5-6.5C193,84.5,193.1,79,193.2,73.4L193.2,73.4L193.2,73.4z"/>
<path class="st0" d="M281.6,173.6c-5.6-29.1-25.3-49-55.8-58.5c-29.4-9.2-56.7-3.4-80,15.2c-21.2,16.8-31.3,38.4-28.4,64.1
	c2.6,23.4,15.5,41.8,36.4,55.5c2.4,1.6,3.8,3.3,4.2,6c2,11.5,4.2,23.1,6.3,34.6c1.1,6.2,2.9,7.7,9.8,7.7h25.8l0,0
	c9.2,0,18.4,0,27.6,0c4.7,0,6.8-1.6,7.7-5.8c2.3-11.7,4.5-23.5,6.5-35.3c0.5-3.1,2.3-5.8,5-7.4C274.7,230.6,287.7,205.1,281.6,173.6
	z M223,200.7c-4.6,4.3-9.2,8.6-14,12.8c-1.9,1.5-3,3.8-2.9,6.3c0.1,21,0.1,42.1,0.1,63.1c0,0.4,0,0.7,0.1,1.1h-13.1
	c0-0.3,0-0.6,0-0.9c0-21.4,0.1-42.8-0.1-64.1c-0.2-1.9-1-3.7-2.3-5c-4.5-4.6-9.3-8.9-13.9-13.3c-3.4-3.2-3.6-6.8-0.6-9.3
	s6.6-2.2,9.9,0.8c1.1,1,2.2,2.2,3.4,3.2c3.4,3.1,6.9,6.1,10.5,9.4c4.6-4.2,9-8.3,13.5-12.4c3.6-3.2,7.2-3.5,10.2-0.9
	S226.5,197.4,223,200.7z"/>
</svg>
