<?xml version="1.0" encoding="utf-8"?>
<!-- Generator: Adobe Illustrator 20.0.0, SVG Export Plug-In . SVG Version: 6.00 Build 0)  -->
<svg version="1.1" id="Layer_1" xmlns="http://www.w3.org/2000/svg" xmlns:xlink="http://www.w3.org/1999/xlink" x="0px" y="0px"
	 viewBox="0 0 400 400" style="enable-background:new 0 0 400 400;" xml:space="preserve">
<style type="text/css">
	.st0{fill:#BE2627;}
</style>
<title>process01_discuss</title>
<path class="st0" d="M47,256.2c6.6-19.3,20.4-25.6,40.1-26s33.6,7.1,45.5,21.8c20.3,25,23.1,26.7,54,37.2c-6,9-8.7,18.5-1.8,29.8
	c-21-3.2-38.3-11.1-54.7-24.3v56.9H47V256.2L47,256.2z"/>
<path class="st0" d="M270.2,351.1v-56.3c-15.1,12.4-31.2,20.1-49.2,23.6c-5,1.1-10,1.9-15.1,2.3c-8,0.6-15.1-5.2-16.1-13.2
	c-1.1-7.7,4.2-15,12.4-16.9c2.5-0.6,5.1-0.6,7.6-1c21.3-3.3,38.9-13.2,52.1-30.6c1.6-2,3.3-3.9,4.8-6c15.3-22.5,37.4-25.5,61.7-21.3
	c13.4,2.3,24.2,15,24.4,28.9c0.4,30,0.1,60,0.1,90.5L270.2,351.1L270.2,351.1z"/>
<path class="st0" d="M177.7,132.6c-18.1-3.6-27.9,6.9-36.6,19.4c-1.8,2.3-3.7,4.5-5.8,6.6l-2.2-0.7v-25c-4.9,0-9.1,0.1-13.3,0
	c-12.3-0.3-20.5-8.3-20.7-20.9c-0.2-14.4-0.2-28.7,0-43.1c0.2-12.5,8.3-20.4,20.9-20.4c27.5-0.1,55,0,82.6,0
	c19.2,0,26.5,8.3,24.4,28.9c-10,0-20.1,0-30.2,0c-13.3,0.1-19,5.7-19.1,19.2C177.6,108.4,177.7,120.1,177.7,132.6z"/>
<path class="st0" d="M255.3,153.7v20.2c-5.1-5.8-9-9.6-12.1-14.1c-3.4-5-7.7-6.5-13.6-6.3c-8.9,0.4-17.8,0.2-26.7,0.1
	c-10.6-0.2-16.1-5.5-16.4-16c-0.2-12.3-0.2-24.6,0-36.9c0.2-10.5,5.7-16,16.3-16c24.7-0.1,49.4-0.1,74.1,0
	c10.4,0.1,15.9,5.7,16,16.3c0.2,12,0.2,24.1,0,36.1c-0.2,11-5.6,16.3-16.6,16.5C269.6,153.8,262.8,153.7,255.3,153.7z"/>
<path class="st0" d="M311.9,222.4c-19.4,0.1-35.2-15.5-35.4-34.9c-0.1-19.3,15.6-35.4,34.8-35.6c19.2-0.2,35.2,15.8,35.4,35.1
	C346.8,206.4,331.3,222.2,311.9,222.4z"/>
<path class="st0" d="M88.4,222.4c-19.4,0-35.1-15.6-35.2-35C53.1,168.1,69,152,88.1,151.9s35.1,16,35.2,35.2
	C123.5,206.5,107.8,222.3,88.4,222.4z"/>
</svg>
