<?xml version="1.0" encoding="utf-8"?>
<!-- Generator: Adobe Illustrator 20.0.0, SVG Export Plug-In . SVG Version: 6.00 Build 0)  -->
<svg version="1.1" id="Layer_1" xmlns="http://www.w3.org/2000/svg" xmlns:xlink="http://www.w3.org/1999/xlink" x="0px" y="0px"
	 viewBox="0 0 400 400" style="enable-background:new 0 0 400 400;" xml:space="preserve">
<style type="text/css">
	.st0{fill:#BE2627;}
</style>
<title>process03_design</title>
<path class="st0" d="M250,48.6c4.7,21.1-2.8,36.9-21.9,48.7V73.7h-96.4V136h-58v189.3h154.2c0-16.7,0.5-32.8-0.2-48.9
	c-0.4-10.3,1.5-18.7,10.3-24.8c4.4-3,8.3-6.6,12-9.6v109.4H50V109.5c5-4.9,10.2-9.5,14.9-14.6c14-15.3,27.8-30.9,41.7-46.3H250z"/>
<path class="st0" d="M350,94.3L322,125l-42.1-45.7l26.7-30.7h1.9c2.5,3.2,4.8,6.6,7.6,9.4c11.2,11.6,22.6,22.9,33.9,34.4V94.3z"/>
<path class="st0" d="M119.3,299c6.9-23,12.5-44,19.6-64.5c2.2-6.4,8.1-11.7,12.9-17c15.1-16.4,30.6-32.4,45.6-48.8
	c21.8-23.8,43.3-47.8,65-71.7c0.9-0.9,1.9-1.7,3-2.5c13.5,14.2,26.9,28.2,39.8,42.5c1.1,1.3,0.3,6-1.3,7.8
	c-13.2,14.7-26.8,29-40.2,43.6c-22.6,24.7-45.1,49.5-67.6,74.4c-9.2,10.1-19.6,18.2-32.9,22.1C149.2,289.3,135.3,294,119.3,299z
	 M161.7,231.8l7.2,6.6l103.4-112.4l-7.7-6.1L161.7,231.8z"/>
</svg>
