<?xml version="1.0" encoding="utf-8"?>
<!-- Generator: Adobe Illustrator 20.0.0, SVG Export Plug-In . SVG Version: 6.00 Build 0)  -->
<svg version="1.1" id="Layer_1" xmlns="http://www.w3.org/2000/svg" xmlns:xlink="http://www.w3.org/1999/xlink" x="0px" y="0px"
	 viewBox="0 0 400 400" style="enable-background:new 0 0 400 400;" xml:space="preserve">
<style type="text/css">
	.st0{fill:#BE2627;}
</style>
<title>process04_final</title>
<path class="st0" d="M335.8,216.4l-114.2,60.7l-18.7-58.9L314,160.6L335.8,216.4z"/>
<path class="st0" d="M88.2,159.4L50,111.3L162.4,50c9.7,12.5,19.4,25.8,29.9,38.5c6.5,7.9,4.6,12.2-3.8,16.3
	c-19.7,9.8-39.2,19.8-58.5,30.3C116,142.6,102.5,151,88.2,159.4z"/>
<path class="st0" d="M350,112.1l-35.3,46.3c-35.3-18.6-70.2-36.9-105.1-55.2c-6.5-3.4-6.4-7.3-2-12.7c11-13.4,21.8-27.2,32.3-40.4
	L350,112.1z"/>
<path class="st0" d="M179,277.7L68.5,217L88,160.4c25.9,13.9,50.1,27,74.4,39.9c9.5,5,19.5,9,28.7,14.5c2.7,1.6,5.6,7.3,4.8,10.1
	C191.2,241.7,185.4,258.3,179,277.7z"/>
<path class="st0" d="M320,235.1c0,17.1,0.9,33.2-0.5,49.2c-0.4,4.7-6.3,10.6-11.2,13c-25.9,13-52.4,24.9-78.5,37.6
	c-8.5,4.1-16.4,9.5-26,15.1V248.4l14.6,39.3L320,235.1z"/>
<path class="st0" d="M196.4,348c-17.3-8.7-33.7-17.2-50.3-25.3c-17.7-8.6-35.9-16-53-25.5c-5.4-3-10.5-10.9-11.2-17.1
	c-1.6-14.6-0.5-29.5-0.5-45.4l100.2,52.8l14.9-37.4L196.4,348L196.4,348z"/>
</svg>
