<?xml version="1.0" encoding="utf-8"?>
<!-- Generator: Adobe Illustrator 20.0.0, SVG Export Plug-In . SVG Version: 6.00 Build 0)  -->
<svg version="1.1" id="Layer_1" xmlns="http://www.w3.org/2000/svg" xmlns:xlink="http://www.w3.org/1999/xlink" x="0px" y="0px"
	 viewBox="0 0 432 432" style="enable-background:new 0 0 432 432;" xml:space="preserve">
<style type="text/css">
	.st0{fill:#BE2627;}
</style>
<title>visual_design</title>
<path class="st0" d="M109.5,75.6c15.6,3,25.3,13.5,33.7,26c14.9,22.2,30.4,44.1,45.6,66.2c3.8,5.6,3.8,5.8-0.9,10.6
	c-7.7,7.9-15.6,15.7-23.1,23.8c-2.9,3.1-4.8,3.4-7.8,0c-20.9-23.4-41.9-46.6-62.9-69.9c-9.7-10.7-14.8-23-11.8-37.7
	c2.1-9.9,8.1-16.2,18.2-18.3c0.6-0.2,1.1-0.5,1.6-0.8H109.5z"/>
<path class="st0" d="M75.8,351.7c2.8-10.6,5.6-21.2,8.3-31.9c2.4-9.3,4.6-18.7,6.6-26.8l47.6,45.1c-15,3.8-28.8,7.4-42.6,10.9
	c-6.6,1.7-13.3,3.1-19.9,4.7L75.8,351.7L75.8,351.7z"/>
<path class="st0" d="M258,120.8l46.6,47.9c-1,1.2-2,2.4-3,3.4C251,223.7,200.3,275.3,149.7,326.9c-4.6,4.6-4.8,4.7-9.2,0.2
	c-14.1-14.3-28.1-28.7-42.4-43.3L258,120.8z"/>
<path class="st0" d="M314.1,159.5l-49.5-46.8c6.4-6.2,12-12.1,18.1-17.4c9.8-8.5,19.9-7.9,29,1.3c5.6,5.6,11.2,11.3,16.8,17
	c8.2,8.4,9.1,19.7,1.7,28.7C324.8,148.8,318.7,154.6,314.1,159.5z"/>
<path class="st0" d="M356.3,352.5c-1.3,0.7-2.7,1.2-4.2,1.6c-25.1,3.3-50.1,4-74.4-4.5c-4.3-1.5-8.4-3.4-12.2-5.8
	c-6.6-4.2-8.7-11.6-6.1-18.9c4.9-13.8,23.9-24.4,38.4-21.5c7.8,1.5,12.6,6.4,15.6,13.4c3,7,5.8,14.1,8.6,21.2
	c3.2,8.2,9.7,11.3,18,11.9c5.4,0.4,10.7,0.9,16.1,1.4L356.3,352.5z"/>
<path class="st0" d="M218.9,270.2l24.3-23c10.2,14.3,20.9,29,31.4,43.8c2.2,3,1.6,5.9-1.3,8.2c-4.2,3.4-8.4,6.9-12.7,10.3
	c-2.7,2.1-5.5,2.5-7.9-0.2C241.5,296.3,230.4,283.4,218.9,270.2z"/>
</svg>
