<?xml version="1.0" encoding="utf-8"?>
<!-- Generator: Adobe Illustrator 21.0.0, SVG Export Plug-In . SVG Version: 6.00 Build 0)  -->
<svg version="1.2" baseProfile="tiny" id="Layer_1" xmlns="http://www.w3.org/2000/svg" xmlns:xlink="http://www.w3.org/1999/xlink"
	 x="0px" y="0px" viewBox="0 0 1200 90" overflow="scroll" xml:space="preserve">
<g>
	<rect fill="none" width="1200" height="150"/>
	<path fill="#E6E7E8" d="M19.9,88.2L1,0h8.4L25,79L40,0h8.4L30.1,88.2H19.9z"/>
	<path fill="#E6E7E8" d="M57.5,88.2V0h7.8v88.2H57.5z"/>
	<path fill="#E6E7E8" d="M77.3,67l6.9-2c0.3,2.5,0.8,4.7,1.5,6.8c0.7,2.1,1.6,4,2.8,5.8c1.2,1.8,2.8,3.2,4.7,4.2
		c2,1,4.2,1.5,6.7,1.5c4,0,7.1-1.1,9.3-3.3c2.2-2.2,3.3-5.4,3.3-9.4c0-3.4-1-6.6-3-9.8c-2-3.1-4.9-6.8-8.8-10.9L86.9,35.4
		c-3-3.2-5.3-6.2-6.9-8.9c-1.6-2.8-2.4-5.7-2.4-8.7c0-5.8,1.9-10.4,5.7-13.8c3.8-3.5,8.7-5.2,14.6-5.2c5.8,0,10.4,1.6,13.9,4.9
		c3.5,3.3,5.9,8,7,14.2l0.2,0.8l-6.6,2.1l-0.1-0.7c-0.7-4.4-2.3-8-4.7-10.8c-2.5-2.8-5.7-4.2-9.7-4.2c-3.9,0-7,1-9.3,3
		c-2.3,2-3.5,4.9-3.5,8.8c0,2.3,0.6,4.6,1.9,6.9c1.2,2.3,3,4.6,5.4,7.2l13,14.1c0.3,0.4,1.2,1.3,2.6,2.8c1.4,1.5,2.3,2.5,2.7,2.9
		c0.4,0.5,1.2,1.4,2.4,2.8c1.1,1.4,1.9,2.4,2.4,3.1c0.4,0.7,1,1.7,1.8,3c0.8,1.3,1.3,2.4,1.6,3.4c0.3,1,0.6,2.1,0.8,3.3
		c0.3,1.3,0.4,2.5,0.4,3.7c0,6.3-1.9,11.1-5.8,14.6c-3.9,3.4-8.9,5.1-15,5.1c-3.1,0-6-0.6-8.6-1.8s-4.7-2.9-6.5-5
		c-1.8-2.1-3.2-4.5-4.3-7.2C78.6,73,77.8,70.1,77.3,67z"/>
	<path fill="#E6E7E8" d="M129.7,66.5V0h7.8v68.3c0,5.1,1.1,8.8,3.4,11.3c2.3,2.5,6.2,3.7,11.6,3.7c5.1,0,8.8-1.2,11-3.7
		c2.2-2.5,3.3-6.3,3.3-11.3V0h7.7v66.5c0,15.4-7.3,23.1-22,23.1c-3.5,0-6.6-0.4-9.3-1.2c-2.7-0.8-4.9-1.9-6.6-3.3
		c-1.7-1.4-3.1-3.1-4.1-5.1c-1.1-2-1.8-4.1-2.2-6.3C129.9,71.6,129.7,69.2,129.7,66.5z"/>
	<path fill="#E6E7E8" d="M192.9,88.2H185L202.4,0h10.2L230,88.2h-7.9l-4.4-23h-20.4L192.9,88.2z M198.3,60.1h18.5l-9.3-52
		L198.3,60.1z"/>
	<path fill="#E6E7E8" d="M241,88.2V0h7.8v82h24.7v6.3H241z"/>
	<path fill="#E6E7E8" d="M303.4,88.2V0h7.8v88.2H303.4z"/>
	<path fill="#E6E7E8" d="M327.3,88.2V0h6l27.9,69.9V0h6.6v88.2H362l-28-68.4v68.4H327.3z"/>
	<path fill="#E6E7E8" d="M391.7,88.2v-82h-17.2V0h42.3v6.3h-17.3v82H391.7z"/>
	<path fill="#E6E7E8" d="M423.5,88.2V0h30.8v6.3h-23v33.4h16.4v5.9h-16.4V82h23v6.3H423.5z"/>
	<path fill="#E6E7E8" d="M465.3,88.2V0h23.5c3,0,5.6,0.4,7.8,1.2s4.1,1.9,5.5,3.3c1.4,1.4,2.5,3,3.4,5c0.9,2,1.4,4.1,1.8,6.2
		c0.3,2.1,0.5,4.5,0.5,7.1c0,11.2-4.1,18.4-12.3,21.4l13.6,44h-8.3l-12.9-43.1h-14.8v43.1H465.3z M473.1,38.9h15.7
		c2.2,0,4.1-0.4,5.6-1.3c1.5-0.9,2.7-2.2,3.5-3.8c0.8-1.6,1.3-3.3,1.6-5.1c0.3-1.8,0.5-3.8,0.5-6.1c0-1.9-0.1-3.6-0.3-5.1
		c-0.2-1.5-0.5-3-1-4.4c-0.5-1.4-1.2-2.6-2-3.6c-0.8-1-1.9-1.8-3.2-2.3c-1.3-0.6-2.9-0.9-4.7-0.9h-15.7V38.9z"/>
	<path fill="#E6E7E8" d="M523.8,88.2H516L533.4,0h10.2L561,88.2h-7.9l-4.4-23h-20.4L523.8,88.2z M529.3,60.1h18.5l-9.3-52
		L529.3,60.1z"/>
	<path fill="#E6E7E8" d="M570,62.6v-37c0-3.1,0.2-6,0.6-8.6s1.1-5,2.2-7.3c1-2.3,2.4-4.3,4-5.9c1.6-1.6,3.7-2.8,6.3-3.8
		c2.5-0.9,5.5-1.4,8.8-1.4c13.8,0,20.7,9,20.7,26.9v3.6h-7.4v-5.3c0-2.8-0.2-5.3-0.6-7.5c-0.4-2.2-1.1-4.2-2.1-5.9
		c-1-1.8-2.4-3.1-4.1-4.1c-1.8-0.9-3.9-1.4-6.4-1.4c-2.3,0-4.2,0.3-5.9,0.9c-1.7,0.6-3,1.5-4.1,2.6c-1,1.1-1.9,2.5-2.5,4.1
		c-0.6,1.6-1.1,3.4-1.3,5.2c-0.2,1.8-0.4,3.8-0.4,6.1v40.5c0,2.9,0.2,5.4,0.6,7.6c0.4,2.1,1.1,4.1,2.1,5.9c1,1.8,2.5,3.2,4.4,4.1
		c1.9,0.9,4.3,1.4,7,1.4c2.5,0,4.6-0.5,6.4-1.4c1.8-0.9,3.1-2.3,4.1-4.1c1-1.8,1.7-3.8,2.1-5.9c0.4-2.2,0.6-4.7,0.6-7.5v-6.1h7.4
		v4.3c0,3.1-0.2,5.9-0.6,8.5c-0.4,2.6-1.1,5-2,7.4c-1,2.3-2.2,4.3-3.8,5.9c-1.5,1.6-3.5,2.9-5.9,3.8c-2.4,0.9-5.2,1.4-8.4,1.4
		c-3.4,0-6.4-0.5-9-1.4c-2.6-0.9-4.7-2.2-6.3-3.8c-1.6-1.6-2.9-3.6-3.9-5.9c-1-2.3-1.7-4.8-2.1-7.3C570.2,68.6,570,65.8,570,62.6z"
		/>
	<path fill="#E6E7E8" d="M633.4,88.2v-82h-17.2V0h42.3v6.3h-17.3v82H633.4z"/>
	<path fill="#E6E7E8" d="M665.2,88.2V0h7.8v88.2H665.2z"/>
	<path fill="#E6E7E8" d="M687.4,62.6v-37c0-3.1,0.2-6,0.7-8.6c0.5-2.6,1.2-5.1,2.3-7.4c1.1-2.3,2.5-4.3,4.2-5.8
		c1.7-1.6,3.8-2.8,6.4-3.8c2.6-0.9,5.6-1.4,8.9-1.4s6.3,0.5,8.9,1.4c2.6,0.9,4.7,2.2,6.4,3.8c1.7,1.6,3.1,3.5,4.2,5.8
		c1.1,2.3,1.9,4.8,2.3,7.4c0.5,2.6,0.7,5.5,0.7,8.6v37c0,18-7.5,27-22.5,27S687.4,80.6,687.4,62.6z M724.6,64.4V23.9
		c0-12.6-4.9-18.9-14.7-18.9s-14.7,6.3-14.7,18.9v40.5c0,12.6,4.9,19,14.7,19S724.6,77,724.6,64.4z"/>
	<path fill="#E6E7E8" d="M746.8,88.2V0h6l27.9,69.9V0h6.6v88.2h-5.8l-28-68.4v68.4H746.8z"/>
	<path fill="#E6E7E8" d="M825.2,88.2V0h19.8c3.3,0,6.3,0.5,8.9,1.4c2.6,0.9,4.7,2.1,6.4,3.7c1.7,1.6,3.1,3.5,4.2,5.7
		c1.1,2.3,1.8,4.6,2.3,7.2c0.5,2.5,0.7,5.3,0.7,8.4v35.9c0,17.4-7.5,26-22.5,26H825.2z M833,82h12c9.8,0,14.7-6,14.7-18V24.6
		c0-12.2-4.9-18.3-14.7-18.3h-12V82z"/>
	<path fill="#E6E7E8" d="M881.9,88.2V0h30.8v6.3h-23v33.4h16.4v5.9h-16.4V82h23v6.3H881.9z"/>
	<path fill="#E6E7E8" d="M919.8,67l6.9-2c0.3,2.5,0.8,4.7,1.5,6.8c0.7,2.1,1.6,4,2.8,5.8c1.2,1.8,2.8,3.2,4.7,4.2
		c2,1,4.2,1.5,6.7,1.5c4,0,7.1-1.1,9.3-3.3c2.2-2.2,3.3-5.4,3.3-9.4c0-3.4-1-6.6-3-9.8c-2-3.1-4.9-6.8-8.8-10.9l-13.8-14.5
		c-3-3.2-5.3-6.2-6.9-8.9c-1.6-2.8-2.4-5.7-2.4-8.7c0-5.8,1.9-10.4,5.7-13.8c3.8-3.5,8.7-5.2,14.6-5.2c5.8,0,10.4,1.6,13.9,4.9
		c3.5,3.3,5.9,8,7,14.2l0.2,0.8l-6.6,2.1l-0.1-0.7c-0.7-4.4-2.3-8-4.7-10.8c-2.5-2.8-5.7-4.2-9.7-4.2c-3.9,0-7,1-9.3,3
		c-2.3,2-3.5,4.9-3.5,8.8c0,2.3,0.6,4.6,1.9,6.9c1.2,2.3,3,4.6,5.4,7.2l13,14.1c0.3,0.4,1.2,1.3,2.6,2.8c1.4,1.5,2.3,2.5,2.7,2.9
		c0.4,0.5,1.2,1.4,2.4,2.8c1.1,1.4,1.9,2.4,2.4,3.1c0.4,0.7,1,1.7,1.8,3c0.8,1.3,1.3,2.4,1.6,3.4c0.3,1,0.6,2.1,0.8,3.3
		c0.3,1.3,0.4,2.5,0.4,3.7c0,6.3-1.9,11.1-5.8,14.6c-3.9,3.4-8.9,5.1-15,5.1c-3.1,0-6-0.6-8.6-1.8c-2.6-1.2-4.7-2.9-6.5-5
		c-1.8-2.1-3.2-4.5-4.3-7.2C921,73,920.2,70.1,919.8,67z"/>
	<path fill="#E6E7E8" d="M973.4,88.2V0h7.8v88.2H973.4z"/>
	<path fill="#E6E7E8" d="M995.6,63.6V26.1c0-18.3,7.7-27.4,23.2-27.4c2.5,0,4.7,0.3,6.7,0.8c2,0.5,3.7,1.3,5.1,2.2
		c1.4,0.9,2.6,2.1,3.6,3.6c1,1.5,1.9,3,2.5,4.6c0.6,1.6,1.1,3.4,1.5,5.5c0.4,2.1,0.6,4.1,0.8,6.1c0.1,2,0.2,4.2,0.2,6.6v0.6h-7.8
		v-0.7c0-0.1,0-0.4,0-0.7c0-2.5,0-4.4-0.1-5.7c-0.1-1.3-0.2-3-0.4-5.1c-0.2-2.1-0.6-3.7-1.1-4.8c-0.5-1.1-1.3-2.3-2.2-3.5
		c-0.9-1.2-2.1-2.1-3.6-2.6c-1.5-0.5-3.3-0.8-5.3-0.8c-2.9,0-5.3,0.5-7.4,1.5c-2.1,1-3.6,2.3-4.8,4.1s-1.9,3.6-2.4,5.6
		c-0.5,2-0.7,4.2-0.7,6.7V67c0,2.3,0.2,4.3,0.6,6.1c0.4,1.8,1.1,3.5,2.1,5.2c1,1.6,2.5,2.9,4.5,3.8c2,0.9,4.5,1.4,7.4,1.4
		c2.7,0,5-0.5,6.9-1.4c1.9-1,3.3-2.3,4.3-3.9c1-1.7,1.6-3.4,2-5.2c0.4-1.8,0.6-3.7,0.6-5.9V52h-10.8v-5.9h18.6v42.1h-3.4l-2.3-8.6
		c-1.2,3-3.2,5.5-6.2,7.3c-3,1.8-6.2,2.7-9.8,2.7c-2.4,0-4.5-0.2-6.5-0.6c-2-0.4-3.7-1-5.1-1.7c-1.4-0.7-2.7-1.6-3.9-2.6
		c-1.1-1.1-2.1-2.1-2.8-3.2c-0.7-1.1-1.4-2.3-1.9-3.7c-0.5-1.4-1-2.7-1.2-3.8s-0.5-2.4-0.6-3.8c-0.2-1.4-0.2-2.6-0.3-3.5
		C995.6,65.8,995.6,64.7,995.6,63.6z"/>
	<path fill="#E6E7E8" d="M1054.1,88.2V0h6l27.9,69.9V0h6.6v88.2h-5.8l-28-68.4v68.4H1054.1z"/>
	<path fill="#E6E7E8" d="M1110.6,88.2V0h30.8v6.3h-23v33.4h16.4v5.9h-16.4V82h23v6.3H1110.6z"/>
	<path fill="#E6E7E8" d="M1152.4,88.2V0h23.5c3,0,5.6,0.4,7.8,1.2s4.1,1.9,5.5,3.3c1.4,1.4,2.5,3,3.4,5c0.9,2,1.4,4.1,1.8,6.2
		c0.3,2.1,0.5,4.5,0.5,7.1c0,11.2-4.1,18.4-12.3,21.4l13.6,44h-8.3l-12.9-43.1h-14.8v43.1H1152.4z M1160.2,38.9h15.7
		c2.2,0,4.1-0.4,5.6-1.3c1.5-0.9,2.7-2.2,3.5-3.8c0.8-1.6,1.3-3.3,1.6-5.1c0.3-1.8,0.5-3.8,0.5-6.1c0-1.9-0.1-3.6-0.3-5.1
		c-0.2-1.5-0.5-3-1-4.4c-0.5-1.4-1.2-2.6-2-3.6c-0.8-1-1.9-1.8-3.2-2.3c-1.3-0.6-2.9-0.9-4.7-0.9h-15.7V38.9z"/>
</g>
<g>
</g>
<g>
</g>
<g>
</g>
<g>
</g>
<g>
</g>
<g>
</g>
<g>
</g>
<g>
</g>
<g>
</g>
<g>
</g>
<g>
</g>
<g>
</g>
<g>
</g>
<g>
</g>
<g>
</g>
</svg>
