<?xml version="1.0" encoding="utf-8"?>
<!-- Generator: Adobe Illustrator 21.0.0, SVG Export Plug-In . SVG Version: 6.00 Build 0)  -->
<svg version="1.1" id="Layer_1" xmlns="http://www.w3.org/2000/svg" xmlns:xlink="http://www.w3.org/1999/xlink" x="0px" y="0px"
	 viewBox="0 0 288 288" style="enable-background:new 0 0 288 288;" xml:space="preserve">
<style type="text/css">
	.st0{fill:#BE2627;}
</style>
<title>digital design</title>
<g>
	<path class="st0" d="M222.8,184.2v22.5c-0.3,1-0.6,2-0.8,3.1c-2,9.6-3.2,19.4-6,28.7c-6,20-17.6,35.6-38.3,42.6
		c-3.9,1.3-8,2.3-12,3.4h-21.5c-2.7-0.6-5.3-1.3-8-1.9c-24.7-4.7-42.6-17.5-50.7-42.2c-6.4-19.4-12.8-38.7-19.2-58
		c-2.9-8.9,0.6-16.5,8.7-19.4c8.1-2.9,16.3,0.9,19.5,9.5c3.5,9.4,6.9,18.7,10.3,28.1c0.7,1.8,1.4,3.6,2.1,5.3l0.9-0.3v-5
		c0-44,0-88,0-132c0-2.3-0.1-4.7,0-7c0.4-9.3,6.9-14.9,16.1-14c7.7,0.7,12.5,6.5,12.5,15.4c0.1,17.3,0,34.6,0,51.9
		c0,3.2,0,6.4,0,9.6c4.7-6.2,10.7-7.6,17.4-6.4c9.9,1.8,10.7,9.9,11.3,19.2c5.5-8.4,12.3-10.4,20.1-7.2c8.4,3.4,8.3,11.4,8.4,18.9
		c2.3-2.2,4-4.3,6.2-5.6c9.4-5.7,20.2,0.2,20.8,11.3C221.5,164.4,222.1,174.3,222.8,184.2z"/>
	<path class="st0" d="M143.2,108.9c-0.9-5.3-0.7-9.2,4.4-12.6c17-11.2,23.5-27.8,19.5-47.4C163.3,30,150.9,18,132,13.5
		c-21-4.9-42.8,6.3-51.6,26.2c-8.9,20.2-3,43.3,15.2,55.6c5.3,3.6,6.9,7.3,5.3,13c-19.2-4.6-36-31.1-33.3-54.3
		C71,24.1,89.7,6.1,117.8,3.7c32.4-2.7,53.7,20,58.3,43.2C181.3,73.3,166.9,100.5,143.2,108.9z"/>
	<path class="st0" d="M102.4,86.3C90.2,79.7,84.5,63.1,88.3,49c4.2-15.8,18.7-26.2,35.8-25.8c15.5,0.4,29.2,12.1,32.7,27.9
		c3,13.4-3.3,29.5-13.7,34.6c-0.4-5.2-0.7-10,2.1-14.9c6.5-11.4,3.7-24.6-6.7-33.2c-8.8-7.3-23.1-7.2-32.5,0.1
		c-9.5,7.5-12.1,21.2-7,32.5C101,74.9,101.2,80.3,102.4,86.3z"/>
</g>
</svg>
