<?xml version="1.0" encoding="utf-8"?>
<!-- Generator: Adobe Illustrator 21.0.0, SVG Export Plug-In . SVG Version: 6.00 Build 0)  -->
<svg version="1.1" id="Layer_1" xmlns="http://www.w3.org/2000/svg" xmlns:xlink="http://www.w3.org/1999/xlink" x="0px" y="0px"
	 viewBox="0 0 288 288" style="enable-background:new 0 0 288 288;" xml:space="preserve">
<style type="text/css">
	.st0{fill:#BE2627;}
</style>
<title>visual_design</title>
<g>
	<path class="st0" d="M37.5,3.7c15.6,3,25.3,13.5,33.7,26c14.9,22.2,30.4,44.1,45.6,66.2c3.8,5.6,3.8,5.8-0.9,10.6
		c-7.7,7.9-15.6,15.7-23.1,23.8c-2.9,3.1-4.8,3.4-7.8,0C64,106.9,43,83.7,22,60.4c-9.7-10.7-14.8-23-11.8-37.7
		c2.1-9.9,8.1-16.2,18.2-18.3C29,4.2,29.5,3.9,30,3.6h7.4V3.7z"/>
	<path class="st0" d="M3.8,279.8c2.8-10.6,5.6-21.2,8.3-31.9c2.4-9.3,4.6-18.7,6.6-26.8l47.6,45.1c-15,3.8-28.8,7.4-42.6,10.9
		c-6.6,1.7-13.3,3.1-19.9,4.7V279.8L3.8,279.8z"/>
	<path class="st0" d="M186,48.9l46.6,47.9c-1,1.2-2,2.4-3,3.4C179,151.8,128.3,203.4,77.7,255c-4.6,4.6-4.8,4.7-9.2,0.2
		c-14.1-14.3-28.1-28.7-42.4-43.3L186,48.9z"/>
	<path class="st0" d="M242.1,87.6l-49.5-46.8c6.4-6.2,12-12.1,18.1-17.4c9.8-8.5,19.9-7.9,29,1.3c5.6,5.6,11.2,11.3,16.8,17
		c8.2,8.4,9.1,19.7,1.7,28.7C252.8,76.9,246.7,82.7,242.1,87.6z"/>
	<path class="st0" d="M284.3,280.6c-1.3,0.7-2.7,1.2-4.2,1.6c-25.1,3.3-50.1,4-74.4-4.5c-4.3-1.5-8.4-3.4-12.2-5.8
		c-6.6-4.2-8.7-11.6-6.1-18.9c4.9-13.8,23.9-24.4,38.4-21.5c7.8,1.5,12.6,6.4,15.6,13.4s5.8,14.1,8.6,21.2c3.2,8.2,9.7,11.3,18,11.9
		c5.4,0.4,10.7,0.9,16.1,1.4L284.3,280.6z"/>
	<path class="st0" d="M146.9,198.3l24.3-23c10.2,14.3,20.9,29,31.4,43.8c2.2,3,1.6,5.9-1.3,8.2c-4.2,3.4-8.4,6.9-12.7,10.3
		c-2.7,2.1-5.5,2.5-7.9-0.2C169.5,224.4,158.4,211.5,146.9,198.3z"/>
</g>
</svg>
